<?xml version="1.0" encoding="utf-8"?>
<!-- Generator: Adobe Illustrator 22.0.1, SVG Export Plug-In . SVG Version: 6.00 Build 0)  -->
<svg version="1.1" xmlns="http://www.w3.org/2000/svg" xmlns:xlink="http://www.w3.org/1999/xlink" x="0px" y="0px"
	 viewBox="0 0 500 500" style="enable-background:new 0 0 500 500;" xml:space="preserve">
<style type="text/css">
	.st0{fill:none;}
	.st1{fill:#C6DD7F;}
	.st2{fill:#E9DDB7;}
	.st3{fill:#A6D0E4;}
	.st4{display:none;}
	.st5{fill:#F93E26;}
	.st6{fill:#231F20;}
	.st7{display:inline;}
	.st8{fill:#FE9A11;}
	.st9{fill:#FFF006;}
	.st10{display:inline;fill:#F93E26;}
	.st11{display:inline;fill:#231F20;}
	.st12{fill:#FDFDFD;}
	.st13{fill:#F59415;}
	.st14{fill:#F9DC30;}
	.st15{fill:#FEED00;}
	.st16{display:inline;fill:#FFFFFF;stroke:url(#Alyssa);stroke-width:2;stroke-miterlimit:10;}
	.st17{font-family:'Bangers-Regular';}
	.st18{font-size:73px;}
</style>
<pattern  width="144.1" height="138.4" patternUnits="userSpaceOnUse" id="Alyssa" viewBox="100 -216.8 144.1 138.4" style="overflow:visible;">
	<g>
		<rect x="100" y="-216.8" class="st0" width="144.1" height="138.4"/>
		<g>
			<path class="st1" d="M311-58.3c-11.8-1.4-19.4,0.3-22.7,3.1c-3,2.5-5,5.4-2.2,11.9c2.9,7.1,1.5,14.7-5.5,15.9
				c-6.2,1-10.9-4.8-11.2-12.3c-0.2-5.2-1.9-8.3-5.5-7.6c-3.6,0.7-4.6,5.9-3.6,11.8c1.4,8.1,5.5,11.8,6.2,20.2
				c0.5,6.1-2.9,13.7-12.5,15c-9.3,1.4-15.9-4.3-16.6-10.5c-0.7-6.6,3.6-10.9,3.1-17.6c-0.5-6.7-4-10.2-5.9-17.3
				c-2.8-10.5,1.2-19,7.8-22.7c14.7-8.1,22.8,3.6,36,1.6c10.9-1.7,23.3-18.2,33-19.5c8.2-1.2,13.8,4.7,15,14
				C327.6-63,321.7-57.1,311-58.3z M268.8-57.8c0-2.3-1.9-4.2-4.2-4.2c-2.3,0-4.2,1.9-4.2,4.2s1.9,4.2,4.2,4.2
				C267-53.6,268.8-55.5,268.8-57.8z M318.3-73.2c0-1-0.8-1.7-1.7-1.7c-1,0-1.7,0.8-1.7,1.7s0.8,1.7,1.7,1.7
				C317.5-71.4,318.3-72.2,318.3-73.2z"/>
		</g>
		<g>
			<path class="st2" d="M148.8-77.5c0,7.2,4.6,13.8-1,16.3c-8.5,3.8-28-14.3-28-36.2c0-12,8.7-19,17.8-19c12.3,0,18,8.2,18,17.5
				C155.6-89.5,148.8-85.7,148.8-77.5z M143.4-82.9c0-1.1-0.9-2.1-2.1-2.1c-1.1,0-2.1,0.9-2.1,2.1c0,1.1,0.9,2.1,2.1,2.1
				C142.5-80.8,143.4-81.7,143.4-82.9z"/>
			<path class="st3" d="M223.5-54c-7.9,2.7-19.4-15.3-17.7-27c1.2-8.2,7.1-13.2,13.1-14.2c7.5-1.3,12.9,2.6,13.3,7.2
				c0.5,6.3-3.6,7.5-4.2,15C227.4-65.9,231.7-56.8,223.5-54z M219.7-81.5c0-1.4-1.2-2.6-2.6-2.6c-1.4,0-2.6,1.2-2.6,2.6
				c0,1.4,1.2,2.6,2.6,2.6C218.5-78.9,219.7-80.1,219.7-81.5z"/>
			<path class="st2" d="M119.4-76.5c0,1.4-1.2,2.6-2.6,2.6c-1.4,0-2.6-1.2-2.6-2.6s1.2-2.6,2.6-2.6
				C118.2-79.1,119.4-77.9,119.4-76.5z"/>
			<path class="st3" d="M184.6-84.2c0.7,8.1,12.7,7,17.9,14.2c10.5,14.5-1.2,46.4-21.6,46.4c-11.7,0-24.2-9.7-24.2-29.2
				c0-15.8,10.2-21.5,8.3-42.2c-1-10.8-12.5-20.3-12.5-34.8c0-5.9,3.6-13.4,11.6-13.4c7.1,0,10.8,6,10.8,12.9c0,6.8-5.4,15.7,1.4,19
				c5.2,2.6,13.2-4.8,19.5-6.8c5.2-1.6,12.4,0.2,14.8,8.5c2.5,8.9-3.3,14.7-11.6,16.7C192.5-91.3,184-90.6,184.6-84.2z M168.6-114.7
				c0-1.8-1.5-3.3-3.3-3.3c-1.8,0-3.3,1.5-3.3,3.3c0,1.8,1.5,3.3,3.3,3.3C167.1-111.5,168.6-112.9,168.6-114.7z M194.6-105.1
				c1.3,0,2.3-1,2.3-2.3c0-1.3-1-2.3-2.3-2.3c-1.3,0-2.3,1-2.3,2.3C192.2-106.1,193.3-105.1,194.6-105.1z M174.6-45.4
				c0-1.8-1.5-3.3-3.3-3.3c-1.8,0-3.3,1.5-3.3,3.3c0,1.8,1.5,3.3,3.3,3.3C173.1-42.1,174.6-43.6,174.6-45.4z"/>
			<path class="st1" d="M166.9-58.3c-11.8-1.4-19.4,0.3-22.7,3.1c-3,2.5-5,5.4-2.2,11.9c2.9,7.1,1.5,14.7-5.5,15.9
				c-6.2,1-10.9-4.8-11.2-12.3c-0.2-5.2-1.9-8.3-5.5-7.6c-3.6,0.7-4.6,5.9-3.6,11.8c1.4,8.1,5.5,11.8,6.2,20.2
				c0.5,6.1-2.9,13.7-12.5,15c-9.3,1.4-15.9-4.3-16.6-10.5c-0.7-6.6,3.6-10.9,3.1-17.6c-0.5-6.7-4-10.2-5.9-17.3
				c-2.8-10.5,1.2-19,7.8-22.7c14.7-8.1,22.8,3.6,36,1.6c10.9-1.7,23.3-18.2,33-19.5c8.2-1.2,13.8,4.7,15,14
				C183.5-63,177.6-57.1,166.9-58.3z M124.7-57.8c0-2.3-1.9-4.2-4.2-4.2c-2.3,0-4.2,1.9-4.2,4.2s1.9,4.2,4.2,4.2
				C122.9-53.6,124.7-55.5,124.7-57.8z M174.2-73.2c0-1-0.8-1.7-1.7-1.7c-1,0-1.7,0.8-1.7,1.7s0.8,1.7,1.7,1.7
				C173.4-71.4,174.2-72.2,174.2-73.2z"/>
		</g>
		<g>
			<path class="st3" d="M290.3-104.8c0,6.2-4.2,10.7-8.6,11.6c-4.5,0.9-8.3-1.3-13,1.2c-4.8,2.6-7.1,11.1-16.8,11.1
				c-8,0-15.2-8-15.2-18.8c0-20.2,13.1-29.2,25.6-29.2C278.9-129.1,290.3-116.4,290.3-104.8z M270.6-119.2c0-2.1-1.7-3.8-3.8-3.8
				c-2.1,0-3.8,1.7-3.8,3.8c0,2.1,1.7,3.8,3.8,3.8C268.9-115.4,270.6-117.1,270.6-119.2z"/>
			<path class="st1" d="M311-196.7c-11.8-1.4-19.4,0.3-22.7,3.1c-3,2.5-5,5.4-2.2,11.9c2.9,7.1,1.5,14.7-5.5,15.9
				c-6.2,1-10.9-4.8-11.2-12.3c-0.2-5.2-1.9-8.3-5.5-7.6c-3.6,0.7-4.6,5.9-3.6,11.8c1.4,8.1,5.5,11.8,6.2,20.2
				c0.5,6.1-2.9,13.7-12.5,15c-9.3,1.4-15.9-4.3-16.6-10.5c-0.7-6.6,3.6-10.9,3.1-17.6c-0.5-6.7-4-10.2-5.9-17.3
				c-2.8-10.5,1.2-19,7.8-22.7c14.7-8.1,22.8,3.6,36,1.6c10.9-1.7,23.3-18.2,33-19.5c8.2-1.2,13.8,4.7,15,14
				C327.6-201.3,321.7-195.4,311-196.7z M268.8-196.2c0-2.3-1.9-4.2-4.2-4.2c-2.3,0-4.2,1.9-4.2,4.2c0,2.3,1.9,4.2,4.2,4.2
				C267-192,268.8-193.9,268.8-196.2z M318.3-211.5c0-1-0.8-1.7-1.7-1.7c-1,0-1.7,0.8-1.7,1.7c0,1,0.8,1.7,1.7,1.7
				C317.5-209.8,318.3-210.6,318.3-211.5z"/>
		</g>
		<g>
			<path class="st3" d="M131.8-133.2c-14,2-21.2-13.3-17.7-20.3c3.7-7.3,12.1-4.2,19.5-4.2c9.7,0,16.4-7.6,20.4-2.3
				C158.3-154.4,149-135.6,131.8-133.2z M132.3-150.7c0-1.2-1-2.2-2.2-2.2c-1.2,0-2.2,1-2.2,2.2c0,1.2,1,2.2,2.2,2.2
				C131.3-148.4,132.3-149.4,132.3-150.7z"/>
			<path class="st2" d="M148.8-215.9c0,7.2,4.6,13.8-1,16.3c-8.5,3.8-28-14.3-28-36.2c0-12,8.7-19,17.8-19c12.3,0,18,8.2,18,17.5
				C155.6-227.9,148.8-224.1,148.8-215.9z M143.4-221.2c0-1.1-0.9-2.1-2.1-2.1c-1.1,0-2.1,0.9-2.1,2.1c0,1.1,0.9,2.1,2.1,2.1
				C142.5-219.2,143.4-220.1,143.4-221.2z"/>
			<path class="st3" d="M146.2-104.8c0,6.2-4.2,10.7-8.6,11.6c-4.5,0.9-8.3-1.3-13,1.2c-4.8,2.6-7.1,11.1-16.8,11.1
				c-8,0-15.2-8-15.2-18.8c0-20.2,13.1-29.2,25.6-29.2C134.7-129.1,146.2-116.4,146.2-104.8z M126.4-119.2c0-2.1-1.7-3.8-3.8-3.8
				c-2.1,0-3.8,1.7-3.8,3.8c0,2.1,1.7,3.8,3.8,3.8C124.7-115.4,126.4-117.1,126.4-119.2z"/>
			<path class="st1" d="M145.5-128.5c0,1.3-1.1,2.4-2.4,2.4c-1.3,0-2.4-1.1-2.4-2.4c0-1.3,1.1-2.4,2.4-2.4
				C144.4-131,145.5-129.9,145.5-128.5z"/>
			<path class="st3" d="M229.2-147c-3.2,4.7,1,10.7-1.4,15.2c-2.4,4.5-6.7,5-9.9,2.6c-3.6-2.8-3.4-6.6-8.3-8.8
				c-5.5-2.5-18,2.2-19.7-7.3c-0.9-4.8,2.4-8.6,7.3-9.7c6.1-1.4,9.4-0.2,15.4-3.1c6.1-2.9,11.2-9,22.1-12.1
				c10.4-3,16.1,1.6,16.6,5.9C252.3-155.9,234.2-154.4,229.2-147z M226.9-154.5c0-1.2-1-2.2-2.2-2.2c-1.2,0-2.2,1-2.2,2.2
				c0,1.2,1,2.2,2.2,2.2C225.9-152.2,226.9-153.2,226.9-154.5z"/>
			<path class="st2" d="M256.1-107.9c0,17.2-14.5,25.5-27,22.8c-10.3-2.2-12.8-17.3-16.7-26.2c-3.7-8.6-8.8-22.5-20.2-22.5
				c-11.2,0-12.8,14.5-23.7,14.5c-11,0-24.5-15.7-24.5-39.7c0-14.7,9.8-31.5,20.8-30.7c11.7,0.8,4.5,19.7,15.3,19.7
				c9.5,0,7.9-16.3,9.2-23.3c1.7-9,6.8-14.2,18.5-13.2c14.4,1.2,22.3,13.5,18.9,23.3c-4,11.5-23.9,17.3-21.5,30.5
				c1.3,7.6,13,12,26,16.2C245.8-131.7,256.1-125,256.1-107.9z M211.2-183.7c0,1.8,1.5,3.3,3.3,3.3c1.8,0,3.3-1.5,3.3-3.3
				s-1.5-3.3-3.3-3.3C212.6-187,211.2-185.5,211.2-183.7z M164.5-158.8c0-1-0.8-1.7-1.7-1.7c-1,0-1.7,0.8-1.7,1.7
				c0,1,0.8,1.7,1.7,1.7C163.7-157.1,164.5-157.8,164.5-158.8z M182-148.1c0-2.1-1.7-3.8-3.8-3.8c-2.1,0-3.8,1.7-3.8,3.8
				c0,2.1,1.7,3.8,3.8,3.8C180.2-144.3,182-146,182-148.1z M201.8-163.6c0-0.9-0.7-1.6-1.6-1.6c-0.9,0-1.6,0.7-1.6,1.6
				c0,0.9,0.7,1.6,1.6,1.6C201.1-162.1,201.8-162.8,201.8-163.6z M231.5-108.9c0-1.8-1.4-3.2-3.2-3.2c-1.8,0-3.2,1.4-3.2,3.2
				c0,1.8,1.4,3.2,3.2,3.2C230.1-105.8,231.5-107.2,231.5-108.9z"/>
			<path class="st3" d="M223.5-192.4c-7.9,2.7-19.4-15.3-17.7-27c1.2-8.2,7.1-13.2,13.1-14.2c7.5-1.3,12.9,2.6,13.3,7.2
				c0.5,6.3-3.6,7.5-4.2,15C227.4-204.3,231.7-195.2,223.5-192.4z M219.7-219.9c0-1.4-1.2-2.6-2.6-2.6c-1.4,0-2.6,1.2-2.6,2.6
				c0,1.4,1.2,2.6,2.6,2.6C218.5-217.3,219.7-218.4,219.7-219.9z"/>
			<path class="st2" d="M119.4-214.8c0,1.4-1.2,2.6-2.6,2.6c-1.4,0-2.6-1.2-2.6-2.6c0-1.4,1.2-2.6,2.6-2.6
				C118.2-217.4,119.4-216.3,119.4-214.8z"/>
			<path class="st2" d="M253.3-128.1c0-8.4-5.1-15.2-11.3-15.2s-11.3,6.8-11.3,15.2c0,8.4,5.1,12.4,11.3,12.4
				S253.3-119.7,253.3-128.1z"/>
			<path class="st3" d="M184.6-222.6c0.7,8.1,12.7,7,17.9,14.2c10.5,14.5-1.2,46.4-21.6,46.4c-11.7,0-24.2-9.7-24.2-29.2
				c0-15.8,10.2-21.5,8.3-42.2c-1-10.8-12.5-20.3-12.5-34.8c0-5.9,3.6-13.4,11.6-13.4c7.1,0,10.8,6,10.8,12.9c0,6.8-5.4,15.7,1.4,19
				c5.2,2.6,13.2-4.8,19.5-6.8c5.2-1.6,12.4,0.2,14.8,8.5c2.5,8.9-3.3,14.7-11.6,16.7C192.5-229.7,184-229,184.6-222.6z
				 M168.6-253.1c0-1.8-1.5-3.3-3.3-3.3c-1.8,0-3.3,1.5-3.3,3.3c0,1.8,1.5,3.3,3.3,3.3C167.1-249.8,168.6-251.3,168.6-253.1z
				 M194.6-243.4c1.3,0,2.3-1,2.3-2.3c0-1.3-1-2.3-2.3-2.3c-1.3,0-2.3,1-2.3,2.3C192.2-244.5,193.3-243.4,194.6-243.4z M174.6-183.7
				c0-1.8-1.5-3.3-3.3-3.3c-1.8,0-3.3,1.5-3.3,3.3c0,1.8,1.5,3.3,3.3,3.3C173.1-180.5,174.6-181.9,174.6-183.7z"/>
			<path class="st1" d="M166.9-196.7c-11.8-1.4-19.4,0.3-22.7,3.1c-3,2.5-5,5.4-2.2,11.9c2.9,7.1,1.5,14.7-5.5,15.9
				c-6.2,1-10.9-4.8-11.2-12.3c-0.2-5.2-1.9-8.3-5.5-7.6c-3.6,0.7-4.6,5.9-3.6,11.8c1.4,8.1,5.5,11.8,6.2,20.2
				c0.5,6.1-2.9,13.7-12.5,15c-9.3,1.4-15.9-4.3-16.6-10.5c-0.7-6.6,3.6-10.9,3.1-17.6c-0.5-6.7-4-10.2-5.9-17.3
				c-2.8-10.5,1.2-19,7.8-22.7c14.7-8.1,22.8,3.6,36,1.6c10.9-1.7,23.3-18.2,33-19.5c8.2-1.2,13.8,4.7,15,14
				C183.5-201.3,177.6-195.4,166.9-196.7z M124.7-196.2c0-2.3-1.9-4.2-4.2-4.2c-2.3,0-4.2,1.9-4.2,4.2c0,2.3,1.9,4.2,4.2,4.2
				C122.9-192,124.7-193.9,124.7-196.2z M174.2-211.5c0-1-0.8-1.7-1.7-1.7c-1,0-1.7,0.8-1.7,1.7c0,1,0.8,1.7,1.7,1.7
				C173.4-209.8,174.2-210.6,174.2-211.5z"/>
			<path class="st1" d="M230.2-174.4c0,0.8-0.6,1.4-1.4,1.4c-0.8,0-1.4-0.6-1.4-1.4c0-0.8,0.6-1.4,1.4-1.4
				C229.6-175.7,230.2-175.1,230.2-174.4z"/>
			<path class="st2" d="M235.7-212.8c0,1.2-1,2.2-2.2,2.2s-2.3-1-2.3-2.2c0-1.2,1-2.2,2.3-2.2S235.7-214,235.7-212.8z"/>
			<path class="st3" d="M152.2-189.6c0,0.7-0.5,1.2-1.2,1.2s-1.2-0.5-1.2-1.2s0.5-1.2,1.2-1.2S152.2-190.2,152.2-189.6z"/>
			<path class="st3" d="M148.6-121.1c0,0.8-0.6,1.4-1.4,1.4s-1.4-0.6-1.4-1.4c0-0.8,0.6-1.4,1.4-1.4S148.6-121.9,148.6-121.1z"/>
			<path class="st2" d="M233.1-143.1c0,0.7-0.5,1.2-1.2,1.2s-1.2-0.5-1.2-1.2c0-0.7,0.5-1.2,1.2-1.2S233.1-143.7,233.1-143.1z"/>
			<path class="st1" d="M195.9-125.1c0,1.9-1.5,3.4-3.4,3.4c-1.9,0-3.4-1.5-3.4-3.4c0-1.9,1.5-3.4,3.4-3.4
				C194.3-128.5,195.9-127,195.9-125.1z"/>
			<path class="st2" d="M200.8-85.3c0,1.2-0.9,2.1-2.1,2.1c-1.2,0-2.1-0.9-2.1-2.1s0.9-2.1,2.1-2.1
				C199.9-87.4,200.8-86.4,200.8-85.3z"/>
			<path class="st2" d="M162-91.6c0,0.9-0.7,1.6-1.6,1.6c-0.9,0-1.6-0.7-1.6-1.6c0-0.9,0.7-1.6,1.6-1.6
				C161.3-93.1,162-92.4,162-91.6z"/>
			<circle class="st1" cx="233.1" cy="-205.6" r="2.6"/>
			<circle class="st3" cx="223.1" cy="-170.8" r="2.4"/>
			<path class="st2" d="M127.7-164.2c0,1.4-1.2,2.6-2.6,2.6c-1.4,0-2.6-1.2-2.6-2.6c0-1.4,1.2-2.6,2.6-2.6
				C126.5-166.8,127.7-165.6,127.7-164.2z"/>
			<path class="st3" d="M122.7-171.3c0,0.7-0.6,1.3-1.3,1.3c-0.7,0-1.3-0.6-1.3-1.3s0.6-1.3,1.3-1.3
				C122.1-172.6,122.7-172,122.7-171.3z"/>
			<path class="st2" d="M186.9-119.4c0,0.9-0.7,1.6-1.6,1.6c-0.9,0-1.6-0.7-1.6-1.6c0-0.9,0.7-1.6,1.6-1.6
				C186.2-120.9,186.9-120.2,186.9-119.4z"/>
		</g>
		<g>
			<path class="st3" d="M85-147c-3.2,4.7,1,10.7-1.4,15.2c-2.4,4.5-6.7,5-9.9,2.6c-3.6-2.8-3.4-6.6-8.3-8.8
				c-5.5-2.5-18,2.2-19.7-7.3c-0.9-4.8,2.4-8.6,7.3-9.7c6.1-1.4,9.4-0.2,15.4-3.1c6.1-2.9,11.2-9,22.1-12.1
				c10.4-3,16.1,1.6,16.6,5.9C108.2-155.9,90-154.4,85-147z M82.8-154.5c0-1.2-1-2.2-2.2-2.2c-1.2,0-2.2,1-2.2,2.2
				c0,1.2,1,2.2,2.2,2.2C81.8-152.2,82.8-153.2,82.8-154.5z"/>
			<path class="st2" d="M112-107.9c0,17.2-14.5,25.5-27,22.8c-10.3-2.2-12.8-17.3-16.7-26.2c-3.7-8.6-8.8-22.5-20.2-22.5
				c-11.2,0-12.8,14.5-23.7,14.5c-11,0-24.5-15.7-24.5-39.7c0-14.7,9.8-31.5,20.8-30.7c11.7,0.8,4.5,19.7,15.3,19.7
				c9.5,0,7.9-16.3,9.2-23.3c1.7-9,6.8-14.2,18.5-13.2c14.4,1.2,22.3,13.5,18.9,23.3c-4,11.5-23.9,17.3-21.5,30.5
				c1.3,7.6,13,12,26,16.2C101.7-131.7,112-125,112-107.9z M67-183.7c0,1.8,1.5,3.3,3.3,3.3c1.8,0,3.3-1.5,3.3-3.3s-1.5-3.3-3.3-3.3
				C68.5-187,67-185.5,67-183.7z M20.4-158.8c0-1-0.8-1.7-1.7-1.7c-1,0-1.7,0.8-1.7,1.7c0,1,0.8,1.7,1.7,1.7
				C19.6-157.1,20.4-157.8,20.4-158.8z M37.8-148.1c0-2.1-1.7-3.8-3.8-3.8c-2.1,0-3.8,1.7-3.8,3.8c0,2.1,1.7,3.8,3.8,3.8
				C36.1-144.3,37.8-146,37.8-148.1z M57.7-163.6c0-0.9-0.7-1.6-1.6-1.6c-0.9,0-1.6,0.7-1.6,1.6c0,0.9,0.7,1.6,1.6,1.6
				C57-162.1,57.7-162.8,57.7-163.6z M87.4-108.9c0-1.8-1.4-3.2-3.2-3.2c-1.8,0-3.2,1.4-3.2,3.2c0,1.8,1.4,3.2,3.2,3.2
				C85.9-105.8,87.4-107.2,87.4-108.9z"/>
			<path class="st2" d="M109.2-128.1c0-8.4-5.1-15.2-11.3-15.2c-6.3,0-11.3,6.8-11.3,15.2c0,8.4,5.1,12.4,11.3,12.4
				C104.1-115.6,109.2-119.7,109.2-128.1z"/>
		</g>
	</g>
</pattern>
<g id="Capa_1" class="st4">
</g>
<g id="Capa_2">
	<g id="_x33__1_">
		<g>
			<g>
				<path class="st5" d="M109.4,214.6c4.5,5.7,9.6,11.2,14.5,16.6c6.7-3.1,13.5-5.9,20.4-8.6c-4.2,5-8.4,11.5-12.4,18.1
					c3.7,4.8,6.9,9.7,9,14.8c-3.9-0.8-9.4-2-15.7-3.3c-3.2,5.7-6.1,10.7-8.2,13.8c-2.3-4.4-3.6-10-4.3-16.1
					c-7.2-1.2-14.5-2.1-20.5-2.2c6.4-3.7,12.9-7.2,19.5-10.5C111.1,229.5,110.7,221.7,109.4,214.6z"/>
				<path class="st6" d="M117.1,267.1c-0.1,0-0.1,0-0.2,0c-0.4,0-0.8-0.3-1.1-0.7c-2.1-3.9-3.4-8.9-4.3-15.6c-7.9-1.3-14.3-2-19.4-2
					c-0.6,0-1.1-0.4-1.2-0.9c-0.1-0.6,0.1-1.1,0.6-1.4c6.2-3.6,12.5-7,18.8-10.1l-0.1-1c-0.4-6.9-0.9-14-2-20.6
					c-0.1-0.6,0.2-1.1,0.7-1.4c0.5-0.2,1.2-0.1,1.5,0.4c3.5,4.4,7.4,8.7,11.1,12.9c0.9,1,1.8,2,2.7,3c6.4-2.9,13-5.7,19.6-8.3
					c0.5-0.2,1.2,0,1.5,0.4c0.3,0.5,0.3,1.1-0.1,1.6c-3.4,4.1-7.2,9.6-11.8,17.2c4.1,5.3,6.8,9.9,8.6,14.4c0.2,0.4,0.1,0.9-0.2,1.3
					c-0.3,0.4-0.8,0.5-1.2,0.4c-1.7-0.3-3.7-0.8-6-1.3c-2.6-0.6-5.6-1.2-8.8-1.8c-3.1,5.4-5.7,10.1-7.8,13.1
					C117.8,266.9,117.4,267.1,117.1,267.1z M96.5,246.5c4.6,0.3,10,1,16.3,2c0.6,0.1,1,0.5,1,1.1c0.7,5.8,1.8,10.2,3.2,13.7
					c1.8-2.9,4.1-6.8,6.5-11.1l0.4-0.7c0.3-0.5,0.8-0.7,1.4-0.6c3.5,0.7,6.8,1.4,9.7,2c1.3,0.3,2.5,0.5,3.6,0.8
					c-1.8-3.8-4.3-7.7-7.8-12.2c-0.3-0.4-0.4-1-0.1-1.4c3.6-6,6.7-10.7,9.5-14.5c-5.3,2.2-10.7,4.5-15.9,6.9
					c-0.5,0.2-1.1,0.1-1.5-0.3c-1.1-1.2-2.2-2.4-3.3-3.7c-2.8-3.1-5.6-6.2-8.3-9.4c0.7,5.3,1,10.8,1.4,16.2l0.1,1.8
					c0,0.5-0.2,1-0.7,1.2C106.9,240.8,101.7,243.6,96.5,246.5z"/>
			</g>
			<polygon class="st6" points="84,231.8 99.1,234.4 83.2,228.2 			"/>
			<polygon class="st6" points="86.6,225.9 100.6,233.4 88.6,224.5 			"/>
			<polygon class="st6" points="159.7,234.3 142.6,239.3 161.6,237.9 			"/>
			<polygon class="st6" points="158.5,242.1 141.2,241.2 156.7,244.6 			"/>
			<polygon class="st6" points="118.1,207.1 124.8,225.4 119.9,202 			"/>
			<polygon class="st6" points="138.3,205.4 127.3,225.5 138.4,210.7 			"/>
			<polygon class="st6" points="94.4,264.6 94.2,267.4 108.8,254.8 			"/>
			<polygon class="st6" points="108.4,257.7 99.3,271.7 102.5,271 			"/>
			<polygon class="st6" points="127.3,274.4 129.3,276.1 127.5,257.7 			"/>
			<polygon class="st6" points="129.5,259.6 135.4,274.5 136.6,271.6 			"/>
		</g>
		<path class="st6" d="M349,245.3c-3.4-0.1-6.2-0.2-8.6-0.5c2.2-1.9,5.9-3.6,11-5.1c-16.3,4.9-21,0.5-17.1-16.1
			c-1.6,6.8-3.6,11.2-6.3,13.1c-1.1-2.8-2-6.5-3-11.5c-0.2,5.5-0.4,9.6-1.2,12.6c-3.2-0.3-7.2-2.8-12.1-7.5
			c6.2,5.8,8.9,10.3,8.1,13.9c-2.9,2.1-7.6,3.3-15,4.8c4.1,0.1,7.4,0.3,10.1,0.7c-2.2,1.2-5,2.4-8.6,3.4c16.3-4.9,21-0.5,17.1,16.1
			c0.9-3.9,2-6.9,3.2-9.2c0.7,2.4,1.4,5.4,2.1,9.1c0.2-5.9,0.4-10.1,1.3-13.2c3.8-2.3,8.8-0.1,15.8,6.6c-6.5-6.2-9.2-10.8-7.9-14.5
			C340.8,247,344.4,246.2,349,245.3z"/>
		<g id="_x31__3_" class="st4">
			<g id="_x36__4_" class="st7">
				<path class="st8" d="M214.5,404.2c-3.9-1-7.9-1.2-11.7-0.6c-3.8,0.5-7.4,1.9-10.8,3.6c-3.4,1.7-6.4,3.9-9.1,6.2
					c-1.2,1.1-2.4,2.2-3.5,3.3c0-2.1,0-4.3-0.1-6.6c-0.5-8.4-2.6-17.4-6.8-25c-2.1-3.8-4.7-7-7.5-9.4c-2.8-2.4-6-4-9.1-4.7
					c-5.8-1.2-11.3,0.4-15.7,2.9c0.8-3.3,1.5-7.1,2-11c0.5-4.3,0.8-9,0.7-13.8c-0.1-4.9-0.5-9.9-1.6-14.9c-1-5-2.5-10-4.6-14.7
					c-2.1-4.6-4.6-8.6-7.4-12c-2.7-3.5-5.8-6.2-8.8-8.4c-0.4-0.3-0.8-0.6-1.2-0.9c2.6-0.8,5.3-1.8,8.1-3.1
					c7.5-3.5,15.5-9.7,22.3-18.6c6.8-8.9,11.5-19.9,13.2-30.3c0.9-5.6,1-10.8,0.6-15.5c3.4,3,7.4,5.5,12.1,7.1c4.2,1.5,9,2.3,14,1.9
					c5-0.4,10.2-1.7,15.4-4.1c5.2-2.4,10-5.7,14.4-9.7c4.4-3.9,8.2-8.6,11.4-13.3c5.4-8,9.1-16.4,11.6-24.1c1.2,3,2.9,5.9,5,8.5
					c5.4,6.6,13.8,9.8,22.7,9c4.4-0.4,8.7-1.6,12.8-3.5c4.1-1.8,7.8-4.3,11.2-7c6.6-5.3,11.9-11.3,16.1-16.7
					c0.2,7.2,2.1,15.7,7.2,22.3c2.6,3.5,6,6,9.8,7.8c3.8,1.8,8,2.7,12.4,2.8c8.8,0.2,17.1-2.6,24.3-6.2c5.3-2.6,10-5.8,14-9
					c-0.8,1.7-1.7,3.5-2.4,5.4c-1.4,3.8-2.5,8-2.9,12.6c-0.4,4.6,0,9.6,1.6,14.1c1.7,4.6,5,8.1,8.8,9.6c3.8,1.6,7.7,1.7,11.4,1.3
					c3.7-0.4,7.1-1.3,10.4-2.4c4.5-1.4,8.6-3.2,12.2-5.2c-1,1.6-2,3.2-2.9,5c-2.8,5.3-5.2,11.5-6.9,18.3c-1.6,6.8-2.4,14.4-2,21.9
					c0.4,7.5,1.9,14.9,4.3,21.8c2.4,6.9,5.6,13,9.2,18.1c3.6,5.2,7.5,9.5,11.5,13c2.5,2.2,5,4.2,7.6,5.9c-0.8-0.2-1.6-0.3-2.5-0.4
					c-3.4-0.4-7.2-0.8-11.3-0.6c-4.1,0.1-8.6,0.7-13.3,1.8c-4.7,1-9.6,2.7-14.5,4.9c-5,2.2-10,5.1-15.1,8.6c-5,3.7-9.7,8-13.7,13.1
					c-4,5-7.5,10.5-10,16.4c-2.5,5.9-3.9,12.1-4.4,17.8c-0.1,0.8-0.1,1.6-0.1,2.5c-5.2,0.4-11.1,2.1-17.2,6.2
					c-3.7,2.5-7.4,5.9-10.7,10.2c-3.3,4.2-6.3,9.2-8.7,14.8c-2.5,5.5-4.3,11.2-5.6,16.8c-1.4,5.6-2.2,11.1-2.8,16.3
					c-0.4,3.6-0.6,7-0.7,10.2c0-0.1-0.1-0.2-0.1-0.3c-3.7-10.4-8.5-21.3-14.4-31.8c-2.9-5.2-6.1-10.3-9.8-14.4
					c-3.6-4.2-7.9-7.4-12.5-8.7c-4.6-1.4-9.3-0.8-13.4,0.8c-4.1,1.6-7.8,4.4-10.7,7.6c-2.6,2.8-4.5,5.9-6,8.8
					c-0.5-2.5-1.3-5.1-2.2-7.7c-1.3-3.4-2.9-7.1-5-10.4c-2.2-3.2-4.7-6.4-7.8-8.9C221.9,407.3,218.4,405.3,214.5,404.2z"/>
				<path class="st9" d="M217.7,386.1c-3.7-1-7.4-1.1-10.9-0.6c-3.6,0.4-7,1.8-10.1,3.3c-3.2,1.5-6,3.6-8.5,5.7
					c-1.2,1-2.2,2-3.2,3.1c0-2,0-4-0.2-6.1c-0.5-7.7-2.5-16.1-6.5-23.1c-2-3.5-4.4-6.4-7.1-8.7c-2.7-2.2-5.6-3.7-8.6-4.3
					c-5.5-1.1-10.6,0.3-14.7,2.6c0.7-3.1,1.4-6.5,1.9-10.2c0.4-4,0.7-8.3,0.6-12.8c-0.1-4.5-0.5-9.2-1.5-13.8
					c-1-4.6-2.4-9.2-4.3-13.6c-2-4.3-4.4-8-7-11.1c-2.6-3.2-5.5-5.7-8.3-7.8c-0.4-0.3-0.7-0.5-1.1-0.8c2.4-0.7,5-1.6,7.6-2.8
					c7-3.2,14.5-8.9,20.9-17.1c6.4-8.2,10.7-18.3,12.3-28c0.8-5.1,0.9-10,0.5-14.3c3.2,2.7,7,5.1,11.4,6.6c4,1.4,8.4,2.1,13.1,1.8
					c4.7-0.3,9.5-1.6,14.4-3.8c4.8-2.2,9.4-5.3,13.4-8.9c4.1-3.6,7.7-7.9,10.7-12.3c5-7.3,8.5-15.2,10.8-22.2
					c1.2,2.8,2.7,5.5,4.7,7.9c5.1,6.1,13,9.1,21.3,8.4c4.2-0.3,8.2-1.5,12-3.2c3.8-1.6,7.3-4,10.5-6.5c6.2-4.9,11.1-10.4,15-15.3
					c0.2,6.6,2,14.6,6.8,20.7c2.5,3.2,5.7,5.6,9.2,7.3c3.6,1.7,7.5,2.5,11.6,2.7c8.2,0.2,16.1-2.3,22.8-5.6
					c4.9-2.4,9.3-5.3,13.1-8.3c-0.8,1.6-1.5,3.2-2.3,5c-1.3,3.5-2.3,7.4-2.7,11.7c-0.3,4.2,0,8.9,1.6,13.1c1.6,4.2,4.7,7.5,8.3,8.9
					c3.6,1.5,7.3,1.6,10.7,1.2c3.5-0.4,6.7-1.2,9.8-2.2c4.2-1.3,8-2.9,11.4-4.7c-0.9,1.4-1.8,3-2.7,4.6c-2.6,4.9-4.9,10.6-6.4,16.9
					c-1.5,6.3-2.2,13.3-1.8,20.2c0.4,6.9,1.8,13.8,4.1,20.2c2.3,6.3,5.3,12,8.7,16.8c3.4,4.8,7.1,8.8,10.9,12.1
					c2.4,2.1,4.7,3.9,7.1,5.5c-0.7-0.1-1.5-0.3-2.3-0.4c-3.2-0.4-6.8-0.7-10.6-0.6c-3.9,0.1-8,0.6-12.4,1.6c-4.4,0.9-9,2.5-13.6,4.5
					c-4.7,2-9.4,4.7-14.2,7.9c-4.7,3.4-9.1,7.4-12.9,12c-3.7,4.6-7,9.7-9.3,15.2c-2.3,5.5-3.7,11.1-4.1,16.4
					c-0.1,0.8-0.1,1.5-0.1,2.3c-4.8,0.3-10.4,1.9-16.1,5.7c-3.5,2.3-6.9,5.5-10,9.4c-3.1,3.9-5.9,8.5-8.2,13.6
					c-2.3,5.1-4,10.3-5.2,15.5c-1.3,5.2-2.1,10.2-2.6,15c-0.3,3.3-0.5,6.4-0.6,9.5c0-0.1-0.1-0.2-0.1-0.3c-3.5-9.6-8-19.7-13.6-29.5
					c-2.8-4.8-5.8-9.5-9.2-13.4c-3.4-3.9-7.4-6.8-11.7-8c-4.3-1.3-8.7-0.8-12.6,0.7c-3.9,1.5-7.3,4-10,7c-2.4,2.6-4.2,5.4-5.6,8.2
					c-0.5-2.3-1.2-4.7-2-7.1c-1.2-3.2-2.7-6.5-4.8-9.6c-2-3-4.4-5.9-7.3-8.2C224.7,389,221.3,387.2,217.7,386.1z"/>
				<path class="st8" d="M300.2,407.8c-3.3-5.5-6.2-9.6-9.3-13.1c-5.2-5.8-10.9-9.6-16.8-11.3c-0.7-0.2-1.5-0.4-2.3-0.5
					c-5.3-1.1-11.1-0.5-16.7,1.6c-3,1.2-5.9,2.7-8.6,4.6c-0.4-0.6-0.8-1.2-1.2-1.8c-2.2-3.2-5.5-7.7-10.1-11.2
					c-4-3.2-8.5-5.6-13.2-7l-0.3-0.1c-0.7-0.2-1.4-0.3-2.1-0.5c-4.1-0.8-8.4-0.9-12.8-0.3c-4.4,0.5-8.5,2.1-11.6,3.4
					c-1.3-4.8-3.3-9.8-6-14.7c-2.8-4.9-6.2-9-10-12.3c-4-3.4-8.4-5.6-13.1-6.6h0c-0.8-0.2-1.7-0.3-2.5-0.4c0-1.8,0-3.7,0-5.6
					c-0.2-6.6-0.9-12.2-2-17.5c-1.2-5.9-3.1-11.7-5.4-17c-0.9-1.9-1.8-3.7-2.8-5.5c4.3-3.6,8.3-7.8,12-12.5
					c6.7-8.6,11.7-18.8,14.6-29.4c0.6,0.2,1.3,0.3,1.9,0.4c3.7,0.7,7.5,1,11.3,0.7c6-0.4,12.1-2,18.1-4.7c6.2-2.9,11.9-6.6,17-11.3
					c4.8-4.2,9.4-9.5,13.5-15.5c1.2-1.8,2.3-3.6,3.4-5.4c3.9,2.7,8.2,4.5,13,5.5c3.4,0.7,6.9,0.9,10.4,0.5
					c5.1-0.4,10.3-1.8,15.5-4.1c4.2-1.8,8.6-4.5,13.3-8.2c0.8-0.7,1.6-1.3,2.5-2c1.1,2.1,2.4,4,3.8,5.8c3.4,4.4,7.9,8,13.3,10.6
					c2.7,1.3,5.6,2.2,8.6,2.8c2.2,0.4,4.5,0.7,6.9,0.8c6.4,0.1,13-1,19.8-3.4c0.4,3.8,1.3,7.5,2.5,10.8c3,7.9,8.5,13.9,15.2,16.6
					c1.5,0.6,3.3,1.2,5.1,1.5c2.8,0.6,5.8,0.7,9,0.5c-1.1,6.8-1.5,13.8-1.1,20.6c0.5,9,2.4,17.9,5.2,25.8c1.4,3.9,3,7.6,4.8,11
					c-2.6,0.9-5.2,1.9-7.9,3c-5.3,2.3-10.7,5.3-16.4,9.2l-0.4,0.3c-6.1,4.5-11.5,9.5-15.9,15c-5.3,6.5-9.4,13.3-12.3,20.3
					c-1.5,3.5-2.7,7.1-3.6,10.8c-3.4,1.3-6.8,3-10,5.1c-5,3.3-9.8,7.8-13.9,13c-4.1,5.2-7.8,11.3-10.8,18.1
					C301.2,405.4,300.6,406.6,300.2,407.8z"/>
				<path class="st6" d="M422.4,313.9c-3.5-3.3-6.9-7.2-9.9-11.8c-3.1-4.5-5.8-9.8-8-15.6c-2.2-5.8-3.5-12-4.1-18.2
					c-0.6-6.2-0.2-12.4,1-18.2c1.2-5.8,3-11.2,5.2-15.9c1.5-3.4,3.3-6.4,5.1-9.1c0.7-1.1,1.5-2.1,2.2-3.1c0.3-0.4,0.5-0.7,0.8-1
					c-1.2,0.5-2.5,1.1-3.8,1.7c-0.1,0-0.2,0.1-0.3,0.1c-4.4,1.7-9.6,3.5-15.4,4.8c-2.9,0.6-6.1,1.2-9.2,1.5
					c-3.1,0.3-6.3,0.1-9.2-0.9c-2.9-1.1-5.1-3.3-6.6-6.3c-1.4-3-2-6.7-2-10.4c0-3.7,0.6-7.3,1.6-10.6c0.5-1.8,1.1-3.4,1.8-5
					c0.5-1.2,1.1-2.4,1.6-3.5c0-0.1,0.1-0.2,0.2-0.3c1.3-2.5,2.6-4.8,3.8-6.6c-0.7,0.5-1.4,1.1-2.2,1.6l0,0c-0.7,0.5-1.3,1-2,1.4
					c-4.7,3.2-10.4,6.5-16.9,9.1c-6.5,2.6-13.7,4.5-21.1,4.4c-3.7-0.1-7.2-0.6-10.4-1.8c-3.2-1.2-6.1-3-8.5-5.3
					c-4.7-4.6-7.2-11.8-7.9-18c0-0.2,0-0.4-0.1-0.6c-0.1-1.1-0.1-2.2-0.2-3.3c-0.4,0.5-0.9,1-1.4,1.4c-0.4,0.4-0.8,0.8-1.1,1.2
					c-4.3,4.3-9.4,9.3-15.5,13.5c-6.1,4.2-13.2,7.4-20.6,8.2c-3.7,0.4-7.3,0-10.6-1c-3.3-1-6.3-2.7-8.7-5c-2.4-2.4-4.3-5.3-5.7-8.4
					c0,0,0-0.1-0.1-0.1c-0.4-0.9-0.7-1.7-1-2.6c-0.2,0.6-0.4,1.2-0.6,1.8c-0.2,0.7-0.5,1.3-0.7,2l0,0c-2.6,7.2-6.4,15.2-11.8,22.6
					c-3,4-6.4,7.9-10.2,11.1c-3.8,3.3-8.1,6.1-12.6,8.2c-4.5,2.1-9,3.4-13.4,3.8c-4.4,0.5-8.6,0.1-12.4-0.9
					c-4.9-1.3-9.1-3.7-12.7-6.6c-0.7-0.6-1.4-1.2-2.1-1.8c0.1,1,0.3,2.1,0.3,3.2c0.4,4.8,0.2,10.2-1,15.8c-1.7,8.8-6,17.9-11.9,25.5
					c-5.9,7.7-12.8,13.2-19.4,16.7c-3.4,1.9-6.8,3.3-9.9,4.3c-1.7,0.6-3.3,1.1-4.8,1.4c0.9,0.5,1.8,1.1,2.7,1.7l0,0
					c1.5,1,2.9,2,4.4,3.3c2.5,2.3,5.1,4.8,7.3,7.9c2.3,3.1,4.4,6.6,6.2,10.5c1.7,4,3.1,8.1,4.1,12.3c1,4.2,1.5,8.5,1.9,12.6
					c0.3,4.1,0.2,8.2,0.1,11.9c-0.3,3.8-0.6,7.4-1.2,10.6c-0.1,0.5-0.2,0.9-0.2,1.3c-0.1,0.8-0.2,1.5-0.4,2.2
					c0.7-0.5,1.5-0.9,2.3-1.3c0.3-0.2,0.7-0.3,1-0.5c3.9-1.6,8.7-2.3,13.4-0.7c5,1.8,9.8,6.2,13.3,12.5c1.7,3.2,3.1,6.6,4.1,10.1
					c1.1,3.5,1.7,7.1,2.1,10.6c0.4,2.8,0.6,5.6,0.7,8.3c0,0.9,0,1.8,0,2.6c0.2-0.2,0.4-0.5,0.7-0.7c0.7-0.8,1.5-1.5,2.3-2.1
					c1.4-1.2,2.8-2.4,4.4-3.5c2.5-1.6,5.2-3.3,8.2-4.4c2.9-1.1,6.1-2.1,9.3-2.3c3.2-0.3,6.5,0,9.7,0.9c3.2,1,6.1,2.6,8.8,4.6
					c2.7,1.9,4.9,4.5,6.9,7.1c2,2.6,3.6,5.4,5,8.2c1.3,2.8,2.3,5.6,3.1,8.3l0,0c0,0,0,0,0,0.1c0.1,0.4,0.2,0.8,0.3,1.2
					c0.4-0.9,0.9-1.9,1.4-2.8c0,0,0,0,0-0.1c0.2-0.3,0.4-0.7,0.6-1c1.5-2.4,3.3-4.9,5.6-7c2.6-2.4,5.8-4.4,9.4-5.4
					c3.5-1,7.4-0.9,11,0.5c3.6,1.5,6.9,4.3,9.9,8c3,3.7,5.7,8.2,8.4,13c5.4,9.5,10,19.1,13.9,28.2c1.4,3.4,2.7,6.6,4,9.8
					c0,0,0,0,0,0c0.4,1.1,0.8,2.2,1.2,3.3c0.1,0.3,0.3,0.7,0.4,1c0-0.5,0-1,0-1.5c0-2.9,0.1-6,0.4-9.3l0,0c0.3-4.8,0.7-9.9,1.5-15.3
					c1.3-9.1,3.8-19.1,8.1-28.5c2.1-4.7,4.6-8.9,7.4-12.5c2.7-3.7,5.8-6.6,8.9-8.9c5.1-3.7,10.3-5.7,14.8-6.5
					c0.8-0.2,1.6-0.3,2.4-0.3c0-0.9,0.1-1.8,0.1-2.7c0.1-0.7,0.2-1.4,0.3-2.1c0.6-4.8,2.1-9.7,4.4-14.5c2.2-4.8,5.4-9.2,8.9-13.2
					c3.6-4.1,7.7-7.6,12.1-10.7c4.4-3,8.9-5.7,13.3-7.7c4.4-2.1,8.8-3.8,13-5c4.2-1.2,8.2-2.2,11.9-2.7c1.9-0.3,3.7-0.4,5.4-0.6
					c1.7-0.1,3.4-0.2,5-0.1c0.8,0,1.6,0.1,2.3,0.2c1.2,0.1,2.5,0.3,3.7,0.4c1.2,0,4.8-1.4,5.7-0.7
					C431.1,322.3,426.9,318.2,422.4,313.9z M414.8,322.7c-3-0.4-6.3-0.7-9.9-0.5c-3.6,0.1-7.5,0.6-11.6,1.5
					c-4.1,0.9-8.4,2.3-12.7,4.2c-4.4,1.9-8.8,4.4-13.2,7.4c-4.4,3.2-8.5,6.9-12,11.2c-3.5,4.3-6.6,9-8.7,14.2
					c-2.1,5.1-3.4,10.4-3.8,15.3c-0.1,0.7-0.1,1.4-0.1,2.1c-4.5,0.3-9.8,1.8-15.1,5.3c-3.2,2.1-6.5,5.1-9.4,8.8
					c-2.9,3.6-5.5,8-7.6,12.7c-2.2,4.7-3.7,9.7-4.9,14.5c-1.2,4.8-1.9,9.5-2.4,14c-0.3,3.1-0.5,6-0.6,8.8c0-0.1-0.1-0.2-0.1-0.2
					c-3.3-9-7.5-18.4-12.7-27.5c-2.6-4.5-5.4-8.9-8.6-12.5c-3.2-3.6-6.9-6.4-11-7.5c-4-1.2-8.1-0.7-11.7,0.6
					c-3.6,1.4-6.8,3.8-9.3,6.5c-2.2,2.4-3.9,5.1-5.2,7.6c-0.5-2.1-1.1-4.4-1.9-6.7c-1.2-3-2.5-6.1-4.4-9c-1.9-2.8-4.1-5.6-6.9-7.7
					c-2.7-2.2-5.8-3.9-9.2-4.9c-3.4-0.9-6.9-1-10.2-0.5c-3.3,0.4-6.5,1.6-9.5,3c-3,1.4-5.6,3.4-7.9,5.3c-1.1,0.9-2.1,1.9-3,2.9
					c0-1.8,0-3.7-0.1-5.7c-0.4-7.2-2.3-15-6.1-21.6c-1.9-3.3-4.1-6-6.6-8.1c-2.5-2.1-5.2-3.5-8-4c-5.1-1-9.9,0.3-13.7,2.5
					c0.7-2.9,1.3-6.1,1.7-9.5c0.4-3.7,0.7-7.8,0.5-11.9c-0.1-4.2-0.5-8.6-1.4-12.9c-0.9-4.3-2.2-8.6-4-12.7c-1.9-4-4.1-7.5-6.5-10.4
					c-2.4-3-5.1-5.3-7.7-7.3c-0.3-0.3-0.7-0.5-1-0.7c2.3-0.7,4.6-1.5,7.1-2.6c6.6-3,13.5-8.3,19.5-16c5.9-7.7,10-17.1,11.5-26.2
					c0.8-4.8,0.9-9.3,0.5-13.4c3,2.6,6.5,4.8,10.6,6.2c3.7,1.3,7.9,2,12.3,1.6c4.4-0.3,8.9-1.5,13.4-3.5c4.5-2.1,8.8-4.9,12.6-8.3
					c3.8-3.4,7.2-7.4,10-11.5c4.7-6.9,7.9-14.2,10.1-20.7c1.1,2.6,2.6,5.1,4.4,7.4c4.8,5.7,12.2,8.5,19.9,7.8
					c3.9-0.3,7.7-1.4,11.2-3c3.6-1.5,6.8-3.7,9.8-6c5.8-4.6,10.4-9.7,14-14.3c0.2,6.2,1.9,13.6,6.3,19.3c2.3,3,5.3,5.2,8.6,6.8
					c3.3,1.6,7,2.4,10.9,2.5c7.7,0.2,15-2.2,21.3-5.3c4.6-2.2,8.7-5,12.2-7.7c-0.7,1.5-1.4,3-2.1,4.7c-1.2,3.2-2.2,6.9-2.5,10.9
					c-0.3,4,0,8.3,1.5,12.2c1.5,3.9,4.4,7,7.7,8.3c3.3,1.4,6.8,1.5,10,1.1c3.2-0.3,6.2-1.1,9.1-2c3.9-1.2,7.5-2.8,10.7-4.4
					c-0.9,1.4-1.7,2.8-2.5,4.3c-2.4,4.6-4.5,9.9-6,15.8c-1.4,5.9-2.1,12.4-1.7,18.9c0.4,6.4,1.7,12.9,3.8,18.9
					c2.2,5.9,4.9,11.2,8.1,15.7c3.1,4.5,6.6,8.2,10.1,11.3c2.2,1.9,4.4,3.6,6.6,5.1C416.2,322.9,415.5,322.8,414.8,322.7z"/>
				<g>
					<path class="st6" d="M443.4,288.3c0.8,0.3,0.8,1.9-0.2,2.1c-9.2,1.7-20.2,0.9-28.6-2.7c-0.5-0.2-0.2-1.3,0.3-1.4
						C424,284.1,434.9,285.1,443.4,288.3z"/>
					<path class="st6" d="M412.1,275.3c4.2-1.8,8.4-2.4,12.6-3.4c4.4-1.1,8.6-2,12.8-0.6c0.9,0.3,1,2,0,2.5c-4,2.3-8,2.6-12.1,2.6
						c-4.5,0-9,0.5-13.3-0.3C411.8,276,411.8,275.4,412.1,275.3z"/>
					<path class="st6" d="M418.5,254.7c3.3-3.3,7-7.4,10.9-8.8c0.8-0.3,2,0.7,1.3,2c-2.3,4.3-5.8,7.2-9,10.1
						c-3.9,3.5-8.1,6-12.2,8.9c-0.4,0.3-0.9-0.3-0.5-0.8C412.2,262.3,415.1,258.2,418.5,254.7z"/>
					<path class="st6" d="M365.6,375.6c6.6,1.5,13.2,3.7,19.6,6c5,1.8,10.5,3.1,14.4,7.6c0.7,0.9,0.2,2.9-0.9,3
						c-5.5,0.4-10.3-2.7-15.1-5.2c-6.2-3.2-12.4-6.5-18.3-10.4C364.9,376.3,365.1,375.5,365.6,375.6z"/>
					<path class="st6" d="M389.8,366.9c0.7,0.4,0.3,1.8-0.4,2c-5.4,1.1-12-0.9-17-2.8c-0.5-0.2-0.5-1.4,0.1-1.4
						C378.1,364.4,384.9,364.4,389.8,366.9z"/>
					<path class="st6" d="M379.7,405.2c-8.7-5.1-14.8-13.9-21.5-22.3c-0.2-0.2,0.1-0.8,0.3-0.6c8.1,6.2,16.3,11.7,22.3,21.3
						C381.3,404.5,380.4,405.6,379.7,405.2z"/>
					<path class="st6" d="M354.6,169.8c-3,8.8-9.8,16.7-15.2,23.2c-0.4,0.5-1.2,0-0.8-0.7c3.9-8.2,8.5-18.4,14.7-24.1
						C354.2,167.4,355,168.6,354.6,169.8z"/>
					<path class="st6" d="M350.9,146.4c-3,15.6-11.4,31.5-18.4,45c-0.2,0.5-0.8,0.3-0.7-0.3c4.2-15.2,9-33.1,17.2-45.9
						C349.8,144,351.2,145,350.9,146.4z"/>
					<path class="st6" d="M326.7,185.3c-0.1,0.6-0.9,0.8-1,0.1c-0.6-4.3-0.8-8.7-0.9-13.1c-0.1-4.4-0.4-9.1,0.6-13.5
						c0.3-1.2,1.6-1.5,1.9-0.3c1,4.1,0.6,8.9,0.4,13.3C327.6,176.4,327.4,180.8,326.7,185.3z"/>
					<path class="st6" d="M218.6,418.9c0.1,4.3-1.6,8.5-3,12.5c-1.7,5.3-3.7,10.4-6.2,15.3c-0.5,1.1-1.9,0.7-1.6-0.6
						c1.1-5.3,2.6-10.4,4.5-15.4c1.5-4.3,2.9-8.9,5.7-12.1C218.2,418.3,218.6,418.6,218.6,418.9z"/>
					<path class="st6" d="M185.9,461.8c7.4-19.3,19.3-38.7,30.2-55.2c0.3-0.4,0.8,0,0.6,0.5c-8,19-17.5,40.1-28.9,56.2
						C186.7,464.7,185.3,463.4,185.9,461.8z"/>
					<path class="st6" d="M210.4,404.6c-3.9,5.1-8.6,9.6-13,13.9c-4.3,4.3-9.5,9.2-14.6,11.2c-1.2,0.5-2.2-1.2-1.2-2.6
						c3.6-5.4,9-9.6,13.7-13c4.8-3.5,9.8-7.3,14.9-9.9C210.4,404,210.5,404.3,210.4,404.6z"/>
					<path class="st6" d="M219.8,201.9c0,0.5-0.6,0.6-0.6,0.1c-0.3-14.3-4.1-30.5-0.5-45c0.4-1.8,2.4-2.2,2.8-0.4
						C224.7,170.3,220.5,187.3,219.8,201.9z"/>
					<path class="st6" d="M208.7,213.9c-2.2-8.3-4.4-16.5-6.4-24.8c-1.6-6.7-3.9-13.6-2.9-21.1c0.3-1.9,2.1-2.1,2.8-0.9
						c3.6,6,3.8,15.2,4.7,22.9c0.9,7.9,1.6,15.8,2.4,23.7C209.4,214.1,208.8,214.2,208.7,213.9z"/>
					<path class="st6" d="M192.8,192.3c3,6.6,6,13.2,8.9,19.8c0.2,0.5-0.4,1.3-0.7,0.8c-3.9-5.5-7.7-11.2-11.6-16.7
						c-3-4.2-7.1-8.5-7.1-15c0-1,0.8-2.3,1.7-2C188.6,181,190.5,187.2,192.8,192.3z"/>
					<path class="st6" d="M106.4,353.1c7-10.4,17-13.7,26.5-15c0.3,0,0.4,0.6,0.1,0.7c-9,3.7-17,11-25.6,16.3
						C106.4,355.8,105.7,354.1,106.4,353.1z"/>
					<path class="st6" d="M128.6,328.1c-6.3,3.8-12.8,7.1-19,11.2c-5.7,3.6-11.4,7.5-17.6,7.7c-1.6,0.1-2.3-2.4-0.8-3.9
						c4.7-4.6,10-6.4,15.4-8.1c7.3-2.3,14.5-5.3,21.8-7.8C128.9,327,129.1,327.8,128.6,328.1z"/>
					<path class="st6" d="M133.5,317.4c-12.3,2.1-24.2,6.4-36.3,4.3c-0.9-0.2-1-2.2,0-2.5c12.4-4.3,23.9-2.2,36.3-2.3
						C133.7,316.9,133.7,317.4,133.5,317.4z"/>
				</g>
			</g>
			<path class="st10" d="M417.5,110.1c0.6,6.2,1.8,12.6,2.8,18.8c6.3,0.9,12.6,2,18.8,3.2c-5.3,1.7-11.5,4.4-17.4,7.3
				c0.5,5.2,0.5,10.3-0.4,14.9c-2.5-2.4-5.9-5.9-9.8-9.7c-5,2.6-9.4,4.9-12.4,6.2c0.4-4.3,2.1-8.9,4.4-13.7
				c-4.7-4.2-9.5-8.3-13.9-11.2c6.4,0.3,12.7,0.8,19,1.5C411.8,121.7,415.1,115.9,417.5,110.1z"/>
			<path class="st11" d="M410.9,397.9c-4.3,3.8-8.5,8-12.6,12c2.6,5.2,5.1,10.4,7.5,15.8c-4.1-3.1-9.3-6.3-14.7-9.2
				c-3.7,3.1-7.4,5.8-11.3,7.6c0.5-3.1,1.3-7.5,2.1-12.5c-4.6-2.4-8.6-4.4-11.1-6c3.4-2,7.8-3.1,12.6-3.9c0.7-5.7,1.2-11.5,1.1-16.3
				c3.1,4.9,6.1,9.9,8.9,15C399.2,399.7,405.3,399.2,410.9,397.9z"/>
			<path class="st11" d="M52.4,248.6c3.7,2.8,7.8,5.4,11.6,8c3.7-3,7.4-5.9,11.3-8.6c-1.8,3.8-3.4,8.5-4.8,13.2
				c3.1,2.4,5.9,4.9,7.9,7.7c-2.6,0.1-6.2,0.3-10.3,0.5c-1.1,4-2.1,7.6-2.9,9.9c-2.2-2.4-3.8-5.6-5.3-9.3c-4.7,0.4-9.3,1-13.1,1.9
				c3.4-3.3,6.8-6.5,10.4-9.6C55.9,257.6,54.4,252.9,52.4,248.6z"/>
			<path class="st11" d="M188.3,120.6c3.5,5.2,7.5,10.2,11.4,15.2c6-2.2,12-4.2,18.1-6.1c-3.9,4-8,9.3-11.8,14.7
				c2.9,4.4,5.3,8.8,6.7,13.3c-3.3-0.9-8-2.4-13.3-3.8c-3.2,4.7-5.9,8.8-8,11.3c-1.7-3.9-2.4-8.8-2.6-14.1
				c-6.1-1.5-12.3-2.8-17.5-3.3c5.7-2.8,11.6-5.3,17.4-7.7C188.8,133.6,189,126.8,188.3,120.6z"/>
		</g>
		<g class="st4">
			<g class="st7">
				<path class="st6" d="M356.8,246.1c8.3,51.1-26.4,99.2-77.5,107.6c-51.1,8.3-99.2-26.4-107.6-77.5
					c-8.3-51.1,26.4-99.2,77.5-107.6C300.3,160.4,348.5,195.1,356.8,246.1z"/>
				<path class="st6" d="M273,128.4c-18.9-0.3-37.6,2.7-55.5,8.8l5.3,32.4c17.7-6.8,36.6-9.8,55.5-8.7L273,128.4z"/>
				<path class="st12" d="M243.7,334.5c-4.8-1.7-40.8-19.9-46.9-66c-4.3-35.9,14.2-61.2,19.4-66.4c-23.1,10.7-37.5,42.1-32.7,72.4
					C188.4,308,215.2,333.1,243.7,334.5z"/>
				<path class="st12" d="M231,162.4c-0.2-0.1-3.2,0.8-4.7,1.6c-1.2-7.2-2.7-16.7-3.9-23.8c0.5-0.4,4-1.4,4.7-1.5
					C228.3,145.8,229.8,155.2,231,162.4z"/>
				<g>
					<path class="st6" d="M284.9,29.6c-1-1.3-3.5-0.3-3,1.4c3.7,13.5,5.2,26.8-0.6,40c-6,13.7-18.8,20.7-28.7,31.2
						c-6.7,7.1-11.8,16.6-11.1,25.9c2.2-0.4,4.5-0.6,6.7-0.7c4.1-21.3,31.9-30.5,40.8-50.9C295.6,61.2,294.7,43.3,284.9,29.6z"/>
				</g>
			</g>
			<g id="_x38__1_" class="st7">
				<path class="st13" d="M323.6,60.4c0,0.2,0,0.5,0.1,0.8c0.1,0.5,0.6,0.9,1.4,1.2c1.6,0.8,4.2,1.4,5.9,1.9c-3.9,1-8.3,1-10.1,4.3
					c-0.8,1.4,1.2,2.7,2.9,4.4c-2.1-0.2-6-0.2-7.8,0c-3.9,0.4-5.8,1.7-6.8,2.8c-1.4,1.6-0.3,4.7,0.9,7.3c-0.2-0.4-2.4-0.9-2.9-1
					c-2.9-1-6.1-1.5-9.4,0c-3.7,1.7-3.2,3.7-3.2,6c-2.6-2.3-5.5-5.6-11.2-4.6c-1.7,0.3-3.3,1-4.4,1.8c-0.5,0.4-3.1,2.1-3.1,2.4
					c0-1.7,0.3-5.1-1.1-6.2c-3.1-2.4-8.7-1.9-13.1-0.9c-1.3,0.3-2.5,0.7-3.8,1c7.4-4.8,10.2-8,9.3-9.5c-0.1-0.2-0.2-0.3-0.4-0.5
					c-1.3-1.4-4-1.8-6.5-1.8c-2.2-0.1-5.2-0.1-7.6,0.4c-0.7,0.1-1.3,0.3-1.8,0.6c1.1-0.5,2.2-1,3.2-1.6c4.7-2.4,8.6-5,8.3-7.3
					c-0.2-1.9-3.9-2.7-5.1-4.1c0,0.1,4.6,0,5-0.1c1.6-0.2,2.9-0.9,3.8-1.8c1.5-1.7,1.2-4.7-1.9-8.4c5.5,3.3,12.6,7,17.7,6.6
					c2.4-0.2,4.8-0.9,6.3-2.4c4.1-3.8,4.6-7.7,4.4-12.8c1.6,2.4,3.2,5.9,6.4,7.5c2.9,1.5,7.7,1.9,11.1,0.3c3.8-1.7,7.1-4.7,9.9-7.2
					c0.1-0.1,0.2-0.2,0.3-0.3c0,0.1-0.1,0.3-0.1,0.4c-1.9,5.4-3.9,10.3-1.6,12.2c1.7,1.3,4.3,1.8,8.1,1.5c0.8-0.1,3.4-0.7,5.2-1.2
					c0.7-0.2,1.3-0.3,1.6-0.4c-0.4,0.2-0.7,0.3-1.1,0.5c-1.3,0.6-2.4,1.1-3.5,1.7C325.6,55.9,323.4,57.8,323.6,60.4z"/>
				<path class="st14" d="M292.8,83.4c-2.3-1.4-5.3-2.4-9.4-1.8c-0.1,0-0.2,0-0.3,0.1c-1.6,0.3-3.1,0.8-4.4,1.5
					c-0.2-1.2-0.7-2.2-1.6-2.9c-2.3-1.8-5.8-2.6-10.3-2.2c3.1-2.8,4.1-5,3.1-6.7c-0.2-0.3-0.4-0.6-0.6-0.8c-1.5-1.6-4.4-2.5-8.4-2.6
					c2.6-1.8,4.7-4,4.5-6.2c-0.1-0.9-0.5-1.6-1.1-2.2c1.8-0.5,3.3-1.4,4.4-2.6c0.9-1,1.4-2.3,1.4-3.6c4.2,2,8.3,3.2,12.1,2.9
					c0.5,0,1-0.1,1.5-0.2c2.9-0.5,5.2-1.5,6.9-3.1c2.2-2.1,3.6-4.2,4.3-6.4c0.7,0.6,1.5,1.2,2.4,1.7c2.8,1.4,6.8,2,10.5,1.4
					c1.4-0.2,2.7-0.6,3.8-1.1c1.3-0.6,2.5-1.3,3.6-2c-0.7,3-0.7,5.4,1.2,7c1.6,1.3,3.8,2,6.6,2.1c-1.4,1.4-2.4,3.1-2.3,5.2
					c0,0.3,0.1,0.6,0.1,1c0.2,0.9,0.9,1.7,2.4,2.4c-2,0.7-3.9,1.9-5,3.9c-0.6,1-0.5,1.9-0.1,2.8c-0.8,0-1.6,0.1-2.2,0.1
					c-0.5,0-1,0.1-1.5,0.2c-4.2,0.7-6.5,2.4-7.6,3.7c-1.1,1.3-1.3,2.9-1,4.6c-2-0.4-3.9-0.4-5.7-0.1c-1.3,0.2-2.5,0.6-3.7,1.1
					C294.6,81.3,293.4,82.3,292.8,83.4z"/>
				<g>
					<path class="st6" d="M337.1,78c-21.4-5.8-31.8-4.8-20.3,10.9c0,0-27.7-18.4-16,10.9c-9.7-10.2-11.3-24.4-32.1-0.8
						c5.6-14.5,9.3-20.1-24.1-11.7c21.9-13.4,23.9-16.4,6.6-14.4l-0.1-2c2.5-1.2,6.5-1.1,9.4-1c2.8,0.1,5.9,0.6,6.9,2.3
						c0.9,1.5-2,4.8-9.3,9.5c1.3-0.3,2.5-0.7,3.8-1c4.5-1.1,10-1.5,13.1,0.9c1.3,1,1.1,4.5,1.1,6.2c0-0.4,2.6-2.1,3.1-2.5
						c1.2-0.8,2.7-1.5,4.4-1.8c5.6-1,8.6,2.3,11.2,4.6c0.1-2.3-0.5-4.4,3.2-6c3.3-1.5,6.5-1,9.4,0c0.5,0.2,2.7,0.7,2.9,1
						c-1.2-2.7-2.3-5.7-0.9-7.3c0.9-1.1,2.9-2.4,6.8-2.8c1.8-0.2,5.8-0.2,7.8,0.1c-1.8-1.7-3.7-3-2.9-4.4c1.8-3.2,6.2-3.3,10.1-4.3
						l0.5,1.6C322.8,68.1,325,72.1,337.1,78z"/>
					<path class="st6" d="M290.3,27.6c7.3,17.8,15.5,27.8,37.4,0.1c-10.3,23.6-11.7,27.8,19.3,19.2c-23,11-25.3,16.2-0.6,17.6
						c-6.6,0.2-11.6,0.7-14.9,1.6l-0.5-1.6c-2.5-0.8-7-1.7-7.3-3.1c-1-4.2,3.6-6.4,9.9-9.3c-1.4,0.2-5.7,1.4-6.8,1.5
						c-3.8,0.3-6.5-0.1-8.1-1.5c-2.4-1.9-0.2-7,1.7-12.6c-2.8,2.6-6.2,5.6-10.2,7.4c-3.4,1.6-8.2,1.2-11.1-0.3
						c-3.1-1.6-4.8-5.1-6.4-7.5c0.3,5.1-0.2,9-4.4,12.8c-1.5,1.4-3.9,2.2-6.3,2.4c-5.2,0.4-12.2-3.3-17.7-6.6l1.5-1.3
						C277.2,52.6,291.9,55.9,290.3,27.6z"/>
					<path class="st6" d="M265.9,46.2l-1.5,1.3c3.1,3.7,3.4,6.7,1.9,8.4c-0.8,0.9-2.2,1.7-3.8,1.8c-0.4,0.1-5,0.2-5,0.1
						c1.2,1.4,4.9,2.2,5.1,4.1c0.3,2.8-5.7,6.1-11.6,8.9l0.1,2c-4.7,0.5-10.8,1.4-18.3,2.6c24.3-10.1,34.7-14.2,6.2-20.6
						c30.5,3,25.5-1.1,14.4-17.2C252.9,36.9,258.7,42.2,265.9,46.2z"/>
				</g>
			</g>
			<g class="st7">
				<path class="st15" d="M307.3,96.7c-2.2,1.5-5.1,4.5-3.8,6.8l0,0l-0.4,0c-2.4-0.1-4.5,1.7-4.8,4.1l0,0.4l-1.3-1
					c-1.3-1-3.6,0.3-4.7,1.6l-1.1,1.2l-0.2-0.8c-0.6-2.1-3-4.3-5.1-3.9l-0.8,0.2l0.6-1.6c0.6-1.6,0.6-3.5-1-4.2l-1.5-0.7l1.2-0.8
					c1.5-1,0.8-4.5-0.1-6.1l-0.7-1.3l1.7,0.1c1.6,0.1,4.2,0.4,4.4-1.3l0.2-1.7l1.3,1c1.4,1.1,3.3,0.9,4.5-0.4l1.1-1.2l0.8,2.9
					c0.3,0.9,1.2,1.5,2.1,1.3l4.1-2.3l-0.9,3.2C301.4,96.8,307.3,96.7,307.3,96.7z"/>
				<path class="st6" d="M290.6,112l-0.8-2.7c-0.4-1.5-2.2-3.3-3.6-3.1l-3,0.6l1.3-3.5c0.3-0.8,0.6-2.3-0.4-2.8l-3.4-1.5l2.8-1.9
					c0.7-0.5,0.4-3.1-0.4-4.6l-1.7-3l4.3,0.1c0.6,0,1.2,0.1,1.8,0c0.1,0,0.9-0.1,1-0.3l0.4-3.7l2.8,2.2c0.9,0.7,2.2,0.6,3-0.2
					l2.4-2.6l1.4,4.8c0.1,0.3,0.4,0.5,0.7,0.5l6.3-3.5l-1.7,5.8c-0.2,0.9-0.2,1.6,0.2,2.1c0.8,1,2.7,1.1,3.3,1.1l3.8-0.1l-3.2,2.2
					c-1.9,1.3-4.3,3.9-3.5,5.3l1,1.7l-2.3,0c-1.9-0.1-3.4,1.3-3.6,3.1l-0.3,2.3l-2.9-2.3c0,0-0.2-0.2-0.6-0.1
					c-0.9,0.1-2,0.9-2.6,1.5L290.6,112z M286.6,103.9c2.1,0.2,4,1.9,5,3.8c0.9-0.9,2.4-2,4-2.1c0.8-0.1,1.5,0.1,2.1,0.5
					c0.7-1.9,2.4-3.2,4.4-3.6c-0.1-1.8,1.2-3.7,2.6-5c-0.9-0.3-1.8-0.8-2.5-1.6c-0.6-0.7-1.2-2-0.6-4.1l0.2-0.6l-2.4,1.1
					c-1.4,0.1-2.7-0.8-3.1-2.1l-0.3-1c-1.4,1.3-3.8,1.5-5.4,0.4c-0.2,0.9-0.9,1.9-3,2.1c-0.7,0.1-1.4,0-2,0l-0.3,0
					c0.9,1.9,1.4,5.2-0.1,6.8C286.9,99.4,287.5,101.5,286.6,103.9z"/>
			</g>
			<g class="st7">
				<path class="st15" d="M250.8,104.1c-2.2,1.5-5.1,4.5-3.8,6.8l0,0l-0.4,0c-2.4-0.1-4.5,1.7-4.8,4.1l0,0.4l-1.3-1
					c-1.3-1-3.6,0.3-4.7,1.5l-1.2,1.3l-0.2-0.8c-0.6-2.1-3-4.3-5.1-3.9l-0.8,0.2l0.6-1.6c0.6-1.6,0.6-3.5-1-4.2l-1.5-0.7l1.2-0.8
					c1.5-1,0.8-4.5-0.1-6.1l-0.7-1.3l1.7,0.1c1.6,0.1,4.2,0.4,4.4-1.3l0.2-1.7l1.3,1c1.4,1.1,3.3,0.9,4.5-0.4l1.1-1.2l0.8,2.9
					c0.3,0.9,1.2,1.5,2.1,1.3l4.1-2.3l-0.9,3.2C244.8,104.2,250.8,104.1,250.8,104.1z"/>
				<path class="st6" d="M234.1,119.4l-0.8-2.7c-0.4-1.5-2.2-3.3-3.6-3.1l-3,0.6l1.2-3.5c0.3-0.8,0.6-2.3-0.4-2.8l-3.4-1.5l2.8-1.9
					c0.7-0.5,0.4-3.1-0.4-4.6l-1.7-3l4.3,0.1c0.6,0,1.2,0.1,1.8,0c0.1,0,0.9-0.1,1-0.3l0.4-3.7l2.8,2.2c0.9,0.7,2.2,0.6,3-0.2
					l2.4-2.6l1.4,4.8c0.1,0.3,0.4,0.5,0.7,0.5l6.3-3.5l-1.7,5.8c-0.2,0.9-0.2,1.6,0.2,2.1c0.8,1,2.7,1.2,3.3,1.1l3.8-0.1l-3.2,2.2
					c-1.9,1.3-4.3,3.9-3.5,5.3l1,1.7l-2.3,0c-1.9-0.1-3.4,1.3-3.6,3.1l-0.3,2.3l-2.9-2.3c0,0-0.2-0.2-0.6-0.1
					c-0.9,0.1-2,0.9-2.6,1.5L234.1,119.4z M230.1,111.3c2.1,0.2,4,1.9,5,3.7c0.9-0.9,2.4-2,4-2.1c0.8-0.1,1.5,0.1,2.1,0.6
					c0.7-1.9,2.4-3.2,4.4-3.6c-0.1-1.8,1.2-3.7,2.6-5c-0.9-0.3-1.8-0.8-2.5-1.6c-0.6-0.7-1.2-2-0.6-4.1l0.2-0.6l-2.4,1.1
					c-1.4,0.1-2.7-0.8-3.1-2.1l-0.3-1c-1.4,1.3-3.8,1.5-5.4,0.4c-0.2,0.9-0.9,1.9-3,2.1c-0.7,0.1-1.4,0-2,0l-0.3,0
					c0.9,1.9,1.4,5.2-0.1,6.8C230.4,106.8,230.9,108.9,230.1,111.3z"/>
			</g>
			<g class="st7">
				<path class="st14" d="M318.7,19.1c2.9,5.8,6.4,11.6,9.7,17.2c6.4-1.5,12.9-2.8,19.5-3.9c-4.6,3.6-9.5,8.5-14.2,13.6
					c2.4,4.9,4.3,9.8,5.2,14.6c-3.3-1.4-7.9-3.5-13.2-5.7c-3.9,4.4-7.3,8.2-9.7,10.6c-1.2-4.3-1.3-9.4-0.8-14.9
					c-6.1-2.4-12.3-4.5-17.6-5.7c6.3-2.1,12.6-4,19-5.7C317.4,32.6,318.5,25.7,318.7,19.1z"/>
				<path class="st6" d="M315.8,66.7c-0.1,0-0.1,0-0.2,0c-0.4-0.1-0.7-0.4-0.8-0.8c-1.1-3.8-1.4-8.4-1-14.5
					c-6.7-2.6-12.2-4.3-16.7-5.3c-0.5-0.1-0.9-0.5-0.9-1.1c0-0.5,0.3-1,0.8-1.1c6.1-2,12.2-3.8,18.3-5.5l0.1-0.8
					c0.9-6.1,1.8-12.5,2-18.4c0-0.5,0.4-1,0.9-1.1c0.5-0.1,1,0.1,1.3,0.6c2.2,4.5,4.9,9,7.4,13.3c0.6,1,1.2,2.1,1.8,3.1
					c6.2-1.4,12.5-2.6,18.7-3.7c0.5-0.1,1,0.2,1.2,0.7c0.2,0.5,0.1,1-0.3,1.4c-3.8,3-8.1,7.1-13.5,12.9c2.6,5.4,4.2,9.9,4.9,14.2
					c0.1,0.4-0.1,0.8-0.4,1.1c-0.3,0.3-0.8,0.3-1.2,0.2c-1.4-0.6-3.1-1.4-5-2.2c-2.2-1-4.7-2.1-7.4-3.2c-3.7,4.2-6.9,7.8-9.3,10
					C316.5,66.6,316.2,66.7,315.8,66.7z M301.6,44.8c4,1.1,8.6,2.7,13.9,4.8c0.5,0.2,0.8,0.7,0.7,1.2c-0.4,5.2-0.3,9.3,0.3,12.6
					c2.1-2.2,4.8-5.2,7.8-8.6l0.5-0.5c0.3-0.4,0.8-0.5,1.3-0.3c2.9,1.3,5.7,2.5,8.1,3.5c1.1,0.5,2.1,0.9,3,1.3
					c-0.9-3.7-2.4-7.6-4.6-12.2c-0.2-0.4-0.1-0.9,0.2-1.3c4.2-4.6,7.8-8.2,11-11c-5.1,0.9-10.2,2-15.2,3.1c-0.5,0.1-1-0.1-1.2-0.5
					c-0.7-1.3-1.5-2.5-2.2-3.8c-1.9-3.2-3.8-6.5-5.5-9.7c-0.4,4.8-1.1,9.7-1.8,14.5l-0.2,1.6c-0.1,0.5-0.4,0.8-0.8,0.9
					C311.7,41.7,306.6,43.2,301.6,44.8z"/>
			</g>
		</g>
		<g class="st4">
			<g class="st7">
				<path class="st5" d="M209.5,308.5c2.2-8.6,0.8-16.4-4.7-22.8c-7-8.1-17.3-10-29.7-5.4c-3.5,1.3-6.2,2.5-8,3.4
					c-0.8,0.4-1.4,0.7-1.9,1.1c-0.6,0.2-1.2,0.4-1.8,0.7c-4.4,2.2-5.7,6.7-3.6,11.4c8.3,18.4,16.5,36.9,24.7,55.4
					c1.2,2.6,2.7,4.5,4.7,5.6c1.8,1,3.7,1.2,5.8,0.6c0.2-0.1,0.4-0.2,0.6-0.2c1.8-0.4,3.5-0.9,5.3-1.4c5-1.6,9.9-4,14.8-7
					c7.4-4.7,11.4-10.6,11.3-17.8C226.8,320.8,220.8,312.2,209.5,308.5z M178.4,298.1c0.5-0.2,1-0.4,1.5-0.6c4.7-2,8.1-1.9,10.5,0.1
					c1.1,1,2.5,2.9,1.8,7.5c-0.3,1.8-2.9,3.8-6.9,5.5c-0.5,0.2-0.9,0.4-1.4,0.6C182.1,306.8,180.3,302.4,178.4,298.1z M208.5,328.8
					c0.1,0.5,0.4,2.1-2.4,4.5c-2.5,2.2-5,3.9-7.3,5.1c-1,0.5-2,0.9-3,1.3c-1.7-4.2-3.4-8.4-5.2-12.5c1.4-0.5,3.1-1.1,5.1-1.6
					c3.6-0.9,6.6-1.1,9-0.5C207.5,326,208.2,327.4,208.5,328.8z"/>
				<path class="st6" d="M201.3,357.8c-1.8,0.6-3.6,1-5.3,1.4c-0.1,0-0.3,0.1-0.5,0.2c-2.3,0.7-4.5,0.5-6.5-0.7
					c-2.2-1.2-4-3.3-5.3-6.2c-8.2-18.4-16.4-36.9-24.7-55.2c-2.4-5.1-0.8-10.3,4.1-12.8c0.6-0.3,1.2-0.6,1.8-0.8
					c1.8-1.2,5-2.6,10-4.5c12.9-4.8,23.6-2.8,31,5.7c5.5,6.5,7.2,14.3,5.2,22.9c11.1,4.2,17.1,13,17.2,24.3
					c0,7.6-4.1,13.8-11.8,18.7C211.4,353.8,206.4,356.2,201.3,357.8z M195.1,357.1c1.9-0.4,3.6-0.9,5.3-1.5
					c4.9-1.6,9.8-3.9,14.6-6.9c7.1-4.5,10.9-10.2,10.8-16.9c-0.2-10.5-5.9-18.6-16.5-22.2c-0.4-0.1-0.7-0.2-1.1-0.4
					c0.1-0.4,0.2-0.7,0.3-1.1c2.1-8.2,0.7-15.6-4.5-21.7c-6.6-7.7-16.5-9.5-28.4-5.1c-4.9,1.8-8,3.2-9.7,4.4c0,0-0.1,0.1-0.1,0.1
					c0,0-0.1,0-0.1,0c-0.5,0.2-1.1,0.4-1.6,0.7c-3.8,2-5,5.8-3.1,9.9c8.3,18.5,16.5,37,24.7,55.5c1,2.4,2.4,4,4.1,5
					c1.6,0.9,3.2,1,5,0.5C194.7,357.3,194.9,357.2,195.1,357.1z M195.2,341.2c-2-4.9-4.1-9.8-6.1-14.7c0.3-0.1,0.6-0.2,1-0.4
					c1.5-0.5,3.2-1.1,5.1-1.6c3.8-1,7-1.2,9.5-0.5c3.6,1,4.4,3,4.8,4.6c0.1,0.7,0.6,2.7-2.7,5.6c-2.6,2.2-5.1,4-7.5,5.2
					c-1,0.5-2,1-3.1,1.4C195.9,341,195.6,341.1,195.2,341.2z M192,328c1.4,3.5,2.8,6.9,4.3,10.4c0.7-0.3,1.3-0.6,1.9-0.9
					c2.3-1.2,4.7-2.9,7.1-5c1.1-0.9,2.3-2.3,2.1-3.5c-0.2-1-0.6-2-3-2.6c-2.2-0.6-5-0.4-8.4,0.5C194.5,327.2,193.2,327.6,192,328z
					 M185.8,311.6c-0.5,0.2-1,0.4-1.5,0.6c-0.3,0.1-0.7,0.2-1,0.4c-2.1-5-4.2-10.1-6.3-15.1c0.8-0.4,1.7-0.7,2.5-1.1
					c5.1-2.2,9-2,11.7,0.3c2.1,1.9,2.8,4.7,2.1,8.6C192.8,308.3,188.3,310.5,185.8,311.6z M184.4,309.6c4.3-1.7,6.4-3.7,6.6-4.8
					c0.8-4.5-0.8-5.8-1.4-6.3c-2-1.7-5.1-1.7-9.3,0.1c-0.2,0.1-0.3,0.1-0.5,0.2C181.4,302.3,182.9,306,184.4,309.6z"/>
			</g>
			<g class="st7">
				<path class="st5" d="M231.9,271.8c-0.1,0-0.3,0.1-0.4,0.1c-8.5,2.3-14.5,7.6-17.8,15.4c-3.9,9.3-4.5,19-2.2,29
					c1.5,6.8,4.4,12.1,8.5,16c5.6,5.4,12,7.8,19.1,7c7.2-0.7,12.8-5,16.7-12.8c4.5-8.9,6.3-19.5,4.8-31.2
					C258.3,276.5,247.8,267.8,231.9,271.8z M242.9,318.4c-1.4,3-3.5,4.5-6.8,5c-3.4,0.5-6.2-0.3-8.5-2.4c-1.9-1.7-3.2-4-3.8-7.3
					c-1.5-7.5-0.8-13.9,2.5-19.7c1.9-3.3,4.3-5.3,7.6-6.1c0.3-0.1,0.6-0.1,1-0.2c6.7-1,10.1,2.1,11.2,10.1
					C247,305,245.9,312,242.9,318.4z"/>
				<path class="st6" d="M239.3,340.4c-7.4,0.7-13.9-1.7-19.7-7.3c-4.2-4-7.2-9.6-8.8-16.6c-2.3-10.2-1.7-20.1,2.2-29.6
					c3.4-8.2,9.6-13.7,18.3-16c0.1,0,0.3-0.1,0.4-0.1c16.5-4.2,27.4,4.8,29.9,24.5c1.5,12-0.3,22.8-5,32
					C252.6,335.4,246.8,339.7,239.3,340.4z M231.7,273c-8.2,2.2-14,7.3-17.2,14.9c-3.8,9.1-4.4,18.5-2.2,28.3
					c1.5,6.6,4.2,11.7,8.1,15.4c5.4,5.2,11.6,7.5,18.5,6.7c7-0.7,12.3-4.8,16.1-12.4c4.4-8.7,6.1-19,4.6-30.4
					c-2.3-18.1-12.4-26.4-27.5-22.7C232,272.9,231.8,273,231.7,273z M236.3,324.5c-3.6,0.5-6.6-0.3-9.2-2.6c-2.1-1.9-3.5-4.4-4.2-8
					c-1.6-7.7-0.8-14.4,2.6-20.5c2.2-3.9,5.2-6.1,9.2-6.7c7.2-1.1,11.1,2.4,12.3,11c1.1,7.4-0.1,14.6-3.2,21.3
					C242.1,322.3,239.8,324,236.3,324.5z M233.9,289c-3,0.7-5.3,2.5-7,5.6c-3.1,5.6-3.9,11.8-2.4,19c0.6,3,1.7,5.1,3.5,6.7
					c2.2,1.9,4.7,2.6,7.9,2.1c3-0.5,5-1.9,6.2-4.5c2.9-6.2,4-12.9,2.9-19.8c-1.1-7.5-4-10.1-10.2-9.2
					C234.5,288.9,234.2,288.9,233.9,289z"/>
			</g>
			<g class="st7">
				<path class="st5" d="M280.7,270c-0.1,0-0.3,0-0.4,0.1c-9.3,1.5-16.1,6.3-20.4,13.7c-5,8.7-6.5,18.1-5,27.9
					c1,6.7,3.6,12.2,7.6,16.3c5.5,5.7,12.1,8.4,19.8,8.2c7.8-0.2,14.2-3.8,19.1-11.1c5.6-8.3,8.4-18.3,7.9-29.7
					C308.5,276.8,298,267.4,280.7,270z M287.5,315.5c-1.6,2.5-3.8,3.8-7.1,4c-3.5,0.2-6.1-0.6-8.3-2.7c-1.7-1.7-2.7-3.8-3.1-6.8
					c-0.9-7.1,0.4-13,4.3-18.1c2.2-2.9,4.7-4.5,8-4.9c0.3,0,0.7-0.1,1-0.1c6.7-0.4,9.6,2.5,10.1,9.8
					C292.9,303.4,291.2,309.7,287.5,315.5z"/>
				<path class="st6" d="M282.5,337.5c-8,0.2-14.8-2.7-20.5-8.6c-4.2-4.3-6.9-10-8-17c-1.5-10.1,0-19.7,5.1-28.7
					c4.4-7.8,11.5-12.7,21.2-14.3c0.1,0,0.3,0,0.4-0.1c18.1-2.8,29.1,7,29.9,26.5c0.5,11.8-2.4,22.1-8.2,30.6
					C297.2,333.5,290.6,337.3,282.5,337.5z M280.4,271.3c-8.9,1.5-15.5,6-19.6,13.1c-4.8,8.5-6.4,17.6-4.9,27.2
					c1,6.5,3.4,11.7,7.3,15.6c5.3,5.4,11.6,8.1,19.1,7.9c7.5-0.2,13.6-3.7,18.3-10.7c5.4-8,8.1-17.8,7.6-28.9
					c-0.8-17.8-10.8-26.7-27.2-24.2C280.7,271.3,280.5,271.3,280.4,271.3z M280.5,320.7c-3.8,0.2-6.6-0.7-9.1-3
					c-2-1.9-3.1-4.3-3.5-7.6c-0.9-7.4,0.4-13.6,4.5-19c2.6-3.5,5.7-5.3,9.8-5.5c7.3-0.4,10.8,3,11.3,11c0.5,7-1.4,13.6-5.2,19.7
					C286.7,319,284.1,320.4,280.5,320.7z M281.4,288.1c-3,0.4-5.3,1.8-7.3,4.5c-3.7,4.9-4.9,10.5-4.1,17.3c0.3,2.7,1.2,4.6,2.7,6.1
					c1.9,1.8,4.3,2.6,7.5,2.4c3-0.2,4.9-1.3,6.3-3.5c3.5-5.6,5.1-11.6,4.7-18c-0.4-6.7-2.9-9.1-8.9-8.7
					C282,288,281.7,288.1,281.4,288.1z"/>
			</g>
			<g class="st7">
				<path class="st5" d="M372.3,280.1c-1.7-9.5-7.8-11-11.3-10.9c-3.3,0.1-9.2,1.5-12.3,10.2c-1.9,5.4-3.7,10.7-5.4,16.1
					c-1.4-5.8-2.8-11.5-4.3-17.3c-1.8-6.9-7.6-7.1-9.3-7c-0.5,0-1,0.1-1.6,0.2c-2.7,0.6-7.3,2.6-8.8,9.8c-2.8,13.5-5.3,27-7.5,40.5
					c-1.2,7.8,2.5,11.3,4.9,12.8c1.4,0.9,2.8,1.3,4.1,1.4c1.8,0.1,6.1-0.5,7.4-7.7c0.7-3.6,1.4-7.2,2.1-10.8
					c0.7,2.8,1.5,5.5,2.2,8.3c2.1,8.3,6.8,10.1,9.5,10.5c0.2,0,0.3,0,0.5,0.1c4.6,0.4,8-2.7,10.4-9.3c1.4-3.8,2.9-7.7,4.3-11.5
					c0.8,4.4,1.5,8.8,2.2,13.1c1.7,9.8,7.8,11.6,10.4,12c0.4,0.1,0.9,0.1,1.4,0.1c3.6,0.1,5.8-1.4,7-2.8c1.9-2.1,2.6-5.2,2-9.1
					C377.8,312.6,375.2,296.3,372.3,280.1z"/>
				<path class="st6" d="M369.8,342.1c-2.3-0.3-9.8-2.2-11.7-13.3c-0.4-2.6-0.9-5.2-1.4-7.9c-0.8,2.2-1.7,4.4-2.5,6.6
					c-2.7,7.2-6.6,10.5-11.7,10.1c-0.2,0-0.4,0-0.6-0.1c-3-0.5-8.3-2.5-10.7-11.6c-0.2-0.9-0.5-1.9-0.7-2.8c-0.3,1.8-0.7,3.6-1,5.4
					c-1.5,8.4-6.9,8.7-8.6,8.7c-1.6-0.1-3.1-0.6-4.7-1.6c-2.1-1.3-6.9-5.3-5.5-14.2c2.2-13.5,4.6-27,7.3-40.4
					c1.6-7.9,6.9-10.3,9.9-10.9c0.6-0.1,1.2-0.2,1.8-0.3c4.1-0.3,9.2,1.7,10.8,7.9c1,4.1,2.1,8.3,3.1,12.4c1.2-3.8,2.5-7.5,3.8-11.3
					c3.3-9.6,10-11.2,13.8-11.3c4,0,11.1,1.6,12.9,12.1c2.8,16.3,5.4,32.6,7.8,49c0.7,4.3-0.2,7.8-2.4,10.3c-1.4,1.5-3.9,3.3-8,3.2
					C370.8,342.2,370.3,342.2,369.8,342.1z M357.8,310.1c1.1,6.1,2.1,12.3,3.1,18.4c1.4,8.4,6.2,10.3,9,10.7
					c0.4,0.1,0.8,0.1,1.2,0.1c3.1,0.1,4.9-1.2,5.9-2.3c1.6-1.8,2.2-4.5,1.7-8c-2.5-16.2-5.1-32.5-8-48.7c-1.4-8.1-6.2-9.8-9.8-9.8
					c-2.8,0-8,1.3-10.8,9.2c-2.5,7-4.8,14-7.1,21c-1.8-7.4-3.6-14.8-5.5-22.2c-1.5-5.8-6.1-6.2-7.9-6c-0.4,0-0.9,0.1-1.4,0.2
					c-2.3,0.5-6.3,2.3-7.7,8.7c-2.8,13.5-5.3,27-7.6,40.6c-1.1,6.6,1.7,9.8,4.2,11.4c1.2,0.7,2.4,1.2,3.5,1.2
					c1.9,0.1,5.1-0.7,6.2-6.7c1-5.4,2-10.8,3.1-16.3c1.2,4.6,2.5,9.2,3.7,13.8c1.8,7.1,5.5,9,8.3,9.4c0.2,0,0.3,0,0.5,0.1
					c3.9,0.3,6.9-2.5,9.1-8.5C353.6,321,355.6,315.6,357.8,310.1z"/>
			</g>
			<g class="st7">
				<path class="st5" d="M408,326.3c-12.4-14.2-36.5,4.9-20.1,17.3C399.5,352.9,418.4,339.1,408,326.3
					C408,326.3,408,326.3,408,326.3z"/>
				<path class="st6" d="M393.1,347.8L393.1,347.8c-2.2-0.5-4.2-1.6-6.1-3c-5.6-4.4-7.7-10-5.5-15.4c2.6-6.6,11-10.9,18.7-9.4
					c3.5,0.7,6.7,2.5,9.1,5.4c4.2,5,4.5,10.7,1.2,15.6C406.8,346.6,399.5,349.4,393.1,347.8z M399.8,323.1
					c-6.1-1.2-13.1,2.4-15.3,7.7c-1.7,4.1-0.1,8.2,4.3,11.7c1.4,1.1,3,1.9,4.7,2.3c5.2,1.2,11-1.1,14.1-5.7
					c2.5-3.8,2.2-8.1-0.9-11.8C404.8,325,402.4,323.6,399.8,323.1z"/>
			</g>
			<g class="st7">
				<path class="st5" d="M395.3,315c2.6,0.5,5.2,0.9,7.8,1.4c2.8,0.5,5.8-0.9,6.4-3.5c0,0,0,0,0-0.1c4.4-19.9,9.2-39.7,14.4-59.4
					c2.2-8.4-2-14.5-10.8-15c-0.2,0-0.4,0-0.6,0c-4-0.2-7.6,0.9-10.3,3.3c-2.8,2.4-4.3,5.6-4.8,9.6c-2.4,19.3-4.7,38.7-6.7,58
					c0,0.1,0,0.2,0,0.3C390.4,312.2,392.5,314.5,395.3,315z"/>
			</g>
			<path class="st11" d="M402.8,318c-2.6-0.5-5.2-1-7.8-1.4c-3.7-0.7-6.4-3.7-6.1-7.1c0-0.1,0-0.2,0-0.3c2-19.3,4.1-38.6,6.5-57.9
				c0.5-4.3,2.2-7.9,5.3-10.5c3.1-2.7,7.4-4.1,12-3.9c0.2,0,0.4,0,0.6,0c4.2,0.2,7.6,1.6,9.9,4c3,3.1,3.9,7.7,2.5,12.8
				c-5.3,19.8-10.1,39.7-14.6,59.6C410.4,316.7,406.6,318.7,402.8,318z M412.1,239.9c-3.3-0.2-6.3,0.8-8.6,2.8
				c-2.4,2.1-3.9,5-4.3,8.7c-2.5,19.4-4.8,38.8-6.9,58.2c-0.2,2,1.3,3.6,3.2,3.9c2.6,0.4,5.2,0.9,7.8,1.4c2,0.4,4-0.7,4.3-2.4
				c4.3-19.8,9-39.6,14.1-59.3c1.1-4.3,0.4-8-1.9-10.4c-1.7-1.7-4.1-2.7-7.2-2.9C412.5,239.9,412.3,239.9,412.1,239.9z"/>
		</g>
		<g>
			<g>
				<path class="st5" d="M140.4,390.2c1.2,7.6,3.1,15.4,4.7,22.9c7.8,0.7,15.6,1.5,23.4,2.7c-6.5,2.4-13.8,6.2-20.9,10.3
					c1,6.4,1.4,12.6,0.6,18.4c-3.2-2.8-7.7-6.8-12.8-11.2c-6,3.6-11.2,6.7-14.8,8.5c0.1-5.3,1.9-11.1,4.4-17.2
					c-6.1-4.9-12.3-9.5-17.9-12.8c7.9-0.1,15.7,0.1,23.5,0.5C134.1,404.9,137.8,397.5,140.4,390.2z"/>
				<path class="st6" d="M120,442.9c-0.1,0-0.1-0.1-0.2-0.1c-0.4-0.3-0.6-0.7-0.6-1.2c0.1-4.7,1.4-10,4.1-16.7
					c-6.7-5.3-12.2-9.3-16.9-12c-0.5-0.3-0.8-0.9-0.6-1.5c0.2-0.6,0.7-1,1.3-1c7.6-0.1,15.2,0.1,22.7,0.4l0.4-0.9
					c3.2-6.6,6.5-13.5,8.9-20.1c0.2-0.6,0.8-1,1.4-0.9c0.6,0.1,1.1,0.5,1.2,1.1c0.9,5.9,2.3,11.9,3.6,17.7c0.3,1.4,0.6,2.8,0.9,4.2
					c7.5,0.7,15,1.5,22.5,2.6c0.6,0.1,1.1,0.6,1.2,1.2c0.1,0.6-0.3,1.2-0.9,1.4c-5.3,2-11.7,5.1-19.9,9.7c1,7,1.1,12.7,0.5,17.8
					c-0.1,0.5-0.4,0.9-0.9,1.1c-0.5,0.2-1,0.1-1.4-0.2c-1.4-1.2-3.1-2.7-4.9-4.3c-2.2-1.9-4.6-4-7.2-6.3c-5.7,3.4-10.6,6.3-14.1,8
					C120.8,443,120.4,443,120,442.9z M111.8,413c4.1,2.7,8.7,6.1,14,10.4c0.5,0.4,0.6,1,0.4,1.6c-2.4,5.7-3.7,10.3-4.2,14.4
					c3.2-1.7,7.3-4.2,11.9-6.9l0.7-0.4c0.5-0.3,1.1-0.2,1.6,0.1c2.9,2.5,5.5,4.8,7.9,6.9c1,0.9,2,1.8,2.9,2.6
					c0.3-4.4,0.1-9.4-0.8-15.4c-0.1-0.6,0.2-1.1,0.7-1.4c6.4-3.6,11.8-6.4,16.4-8.4c-6.1-0.8-12.2-1.5-18.3-2
					c-0.6-0.1-1.1-0.5-1.2-1.1c-0.4-1.7-0.8-3.4-1.1-5.1c-1-4.3-1.9-8.6-2.8-13c-2.1,5.3-4.7,10.6-7.2,15.8l-0.8,1.7
					c-0.2,0.5-0.7,0.8-1.3,0.8C124.4,413.2,118.1,413,111.8,413z"/>
			</g>
			<polygon class="st6" points="107.8,392.9 120.5,403.2 109,389.1 			"/>
			<polygon class="st6" points="113.4,388.7 122.4,403 115.9,388.5 			"/>
			<polygon class="st6" points="176.6,434.8 158.2,430.4 176.5,439 			"/>
			<polygon class="st6" points="171.5,441.4 156,431.5 168.5,442.8 			"/>
			<polygon class="st6" points="152.4,387.8 149,408.2 156.6,384 			"/>
			<polygon class="st6" points="171.9,396.7 151.3,409.7 169.3,401.7 			"/>
			<polygon class="st6" points="100.3,428.7 98.7,431.1 118.8,427.2 			"/>
			<polygon class="st6" points="116.9,429.6 101.1,437.8 104.4,438.8 			"/>
			<polygon class="st6" points="125.7,455 126.7,457.6 134.7,439.6 			"/>
			<polygon class="st6" points="135.5,442.4 133.1,459.3 135.8,457.3 			"/>
		</g>
	</g>
</g>
<g id="Capa_3" class="st4">
	<text transform="matrix(0.9899 -0.1421 0.1421 0.9899 240.8231 252.7071)" class="st16 st17 st18">N</text>
	<text transform="matrix(1 -7.140642e-03 7.140642e-03 1 269.1282 248.0955)" class="st16 st17 st18">g</text>
</g>
<g id="Capa_4" class="st4">
	<text transform="matrix(0.993 0.1182 -0.1182 0.993 196.9546 288.6669)" class="st16 st17 st18">c</text>
	<text transform="matrix(0.9912 -0.1322 0.1322 0.9912 250.6758 310.8601)" class="st16 st17 st18">m</text>
	<text transform="matrix(0.9998 -1.777685e-02 1.777685e-02 0.9998 218.3628 306.2719)" class="st16 st17 st18">O</text>
	<text transform="matrix(0.8995 -0.437 0.437 0.8995 312.9217 306.2989)" class="st16 st17 st18">c</text>
	<text transform="matrix(0.9343 -0.3564 0.3564 0.9343 301.3967 306.1453)" class="st16 st17 st18">i</text>
</g>
</svg>
